<?xml version="1.0" standalone="no"?>
<!DOCTYPE svg PUBLIC "-//W3C//DTD SVG 20010904//EN"
 "http://www.w3.org/TR/2001/REC-SVG-20010904/DTD/svg10.dtd">
<svg version="1.0" xmlns="http://www.w3.org/2000/svg"
 width="1024.000000pt" height="1024.000000pt" viewBox="0 0 1024.000000 1024.000000"
 preserveAspectRatio="xMidYMid meet">
<metadata>
Created by potrace 1.11, written by Peter Selinger 2001-2013
</metadata>
<g transform="translate(0.000000,1024.000000) scale(0.100000,-0.100000)"
fill="#000000" stroke="none">
<path d="M4770 10230 c-1136 -88 -2160 -512 -3005 -1244 -158 -137 -445 -430
-575 -586 -623 -750 -1017 -1641 -1144 -2590 -34 -253 -41 -372 -41 -690 0
-329 7 -437 46 -720 134 -968 552 -1883 1203 -2635 137 -158 430 -445 586
-575 561 -466 1197 -803 1880 -995 443 -125 813 -180 1285 -192 1275 -30 2501
411 3470 1251 158 137 445 430 575 586 623 750 1017 1641 1144 2590 34 253 41
372 41 690 0 329 -7 437 -46 720 -134 968 -552 1883 -1203 2635 -137 158 -430
445 -586 575 -561 466 -1197 803 -1880 995 -314 89 -551 134 -895 171 -167 18
-691 26 -855 14z m-2472 -1524 c84 -43 134 -106 221 -279 242 -477 438 -639
856 -707 40 -6 150 -10 255 -8 199 3 236 -3 297 -48 17 -13 37 -41 44 -61 18
-54 16 -162 -4 -199 -19 -36 -76 -90 -132 -124 -69 -42 -335 -269 -461 -395
-240 -238 -284 -349 -284 -721 0 -190 -2 -211 -21 -251 -44 -92 -133 -114
-225 -58 -36 23 -69 58 -123 135 -96 135 -232 270 -348 347 -133 89 -454 247
-591 293 -154 51 -275 70 -439 70 -142 0 -185 10 -231 53 -36 34 -52 71 -52
124 0 93 44 131 239 207 145 57 262 128 337 203 80 80 243 324 289 433 73 170
114 379 140 708 11 147 18 192 35 228 37 76 110 95 198 50z m4522 -2136 c406
-31 771 -182 1111 -458 l86 -70 84 85 c107 109 266 236 365 293 232 133 534
130 693 -6 69 -60 94 -114 99 -213 4 -85 2 -90 -137 -581 -78 -272 -155 -531
-172 -575 -61 -156 -139 -254 -237 -298 -59 -26 -197 -34 -285 -17 -34 6 -95
27 -136 47 -96 46 -214 159 -369 353 -195 244 -366 406 -505 477 -72 36 -189
63 -277 63 -258 0 -534 -179 -731 -474 -312 -469 -569 -1408 -529 -1932 34
-442 217 -654 565 -654 278 0 435 123 528 415 74 233 112 403 104 471 -10 92
-71 137 -292 219 -168 62 -220 90 -253 139 -51 75 -57 191 -16 275 34 68 90
105 182 121 99 17 2392 9 2444 -8 96 -33 129 -97 104 -205 -38 -165 -90 -216
-395 -388 -125 -71 -180 -113 -209 -162 -11 -17 -111 -349 -222 -736 -111
-387 -213 -734 -226 -770 -50 -133 -111 -213 -199 -259 -50 -27 -52 -27 -292
-30 -196 -3 -254 0 -305 13 -184 46 -250 123 -348 405 -24 69 -45 127 -47 129
-2 3 -52 -43 -111 -100 -161 -158 -270 -238 -437 -321 -236 -119 -467 -169
-765 -169 -527 0 -981 190 -1282 536 -300 344 -439 755 -439 1295 1 439 99
912 294 1410 232 595 560 1010 1015 1284 384 231 804 367 1227 395 175 12 169
12 315 1z"/>
</g>
</svg>
