<svg fill="none" xmlns="http://www.w3.org/2000/svg" viewBox="0 0 590 313"><path fill-rule="evenodd" clip-rule="evenodd" d="M107.672 191.147l1.59 20.055 30.389 7.215 23.175 10.395 18.343 16.02 8.805-7.215 11.19-24.825 12.779-2.385 46.349 4.77 15.959 4.83-5.565 27.271-5.564 19.995 92.636-5.564-3.18-46.532-19.199-42.435-75.882-36.932-56.743 7.215-39.928 44.086-17.61 9.661-31.123-1.59" fill="#FDC777"/><path fill-rule="evenodd" clip-rule="evenodd" d="M489.832 6.976c6.237 7.582-2.935 18.3436-8.193 23.6021-2.507 2.5682-4.647 5.5643-7.093 8.1935-2.446 2.6293-5.503 4.6471-7.704 7.1541-2.324 2.6292-4.953 5.5031-6.91 8.4992-1.223 1.8955-3.057 3.9745-3.607 6.1757-.857 3.1185-.123 1.3452.978 3.1185 1.162 1.8343 1.59 1.8955 1.957 4.4636a14.7215 14.7215 0 002.262 6.3591c2.201 3.4853 4.525 6.726 6.114 10.5171 2.079 5.0751 3.486 10.2724 5.137 15.4701.611 2.018 1.039 4.402 2.079 6.237 1.467 2.69 1.651 2.445 3.852.794 6.481-4.952 13.024-10.2109 19.811-14.9802 3.852-2.6904 7.888-5.3808 11.985-7.7655 2.812-1.6509 8.804-4.5248 10.211-7.5821 1.834-4.0356-1.04-7.7043 2.935-11.373 2.568-2.3847 6.848-3.7299 10.211-4.3414 4.769-.856 10.089.3669 14.859.7949 4.794.3571 9.615.0068 14.308-1.0395 7.276-1.5286 21.156-9.9056 25.864.1835 2.079 4.4025.673 9.2941.306 13.7577-.306 3.9133-1.468 8.1324-3.913 11.312-2.813 3.6687-6.849 3.9133-11.129 4.8916-5.014 1.1618-10.15 1.5898-15.164 2.6904-2.45.5533-4.949.8606-7.46.9172-2.262.1223-5.503-.7949-7.46-.5503-1.895.2446-1.222 1.4675-2.568 2.2624-.55.3057-1.651.1223-1.956.3669-.917.7337-1.162 1.4063-1.835 2.6904-2.14 4.219-5.319 8.377-8.071 12.229-2.323 3.302-4.953 7.276-7.643 10.211-5.748 6.176-11.312 13.024-16.937 19.506a95.5826 95.5826 0 01-9.661 9.6c-1.04.856-3.119 1.651-3.669 2.874-.734 1.773 1.284 5.564 1.773 7.337 1.162 4.158 1.284 8.438 2.507 12.596 1.162 3.913 1.59 8.194 1.834 12.29.551 9.233 1.835 18.038 1.529 27.271-.245 7.949-.55 15.653-3.302 23.48-2.507 7.154-10.089 14.859-17.121 17.488a77.1513 77.1513 0 01-12.29 3.852c-4.158.856-8.56 1.712-12.657 2.874a129.2395 129.2395 0 01-23.663 4.463 237.5544 237.5544 0 01-30.94.673c-4.647-.183-9.355-.183-13.941-.183-4.708 0-9.172.917-13.941 1.467-16.693 1.773-34.364.367-51.057 2.079-8.255.856-16.509 2.446-24.886 2.568-7.521.061-15.103-.428-22.502-.428-2.323 0-4.341.184-6.665-.367-1.223-.305-2.935-1.406-4.219-.734-1.1.551-1.895 2.874-2.568 3.853a34.8716 34.8716 0 01-5.136 5.686c-7.521 7.154-14.92 9.539-24.764 12.168-4.525 1.223-6.726 1.835-10.517 4.586a39.5247 39.5247 0 01-9.783 5.197c-6.971 2.569-15.164.612-21.768-1.65-3.18-1.101-6.482-2.079-9.722-3.363-4.403-1.774-8.072-4.709-12.413-6.482.489 4.647-4.525 6.176-6.053 9.294-.979 2.018-.367 5.198-1.468 7.46-.978 2.14-2.507 4.097-4.83 4.647-3.18.734-8.928-2.813-11.19-4.892-1.223-1.161-2.385-4.219-3.913-4.769-2.018-.673-5.687 2.262-7.521 2.935-9.05 3.18-18.222 4.708-27.944 3.424-9.8442-1.284-18.8326-4.769-28.0656-8.071-18.0991-6.481-33.8135-17.182-47.9381-30.023-.7949-.733-1.9567-1.345-2.4459-2.262-.4891-.795-.428-2.751-.7337-3.179-.9172-1.346-2.3235-1.101-4.0356-1.223-5.3197-.428-9.5999-1.712-13.6966-5.259-6.5426-5.625-8.9273-18.772 1.0394-22.257a14.9083 14.9083 0 018.0101-.55c1.1006.244 5.1362 2.69 6.1757 2.507 1.5898-.245 1.2841-2.263 1.6509-3.363 1.0722-2.687 2.2293.058 4.0357-2.201 3.0751-3.962-22.7083-14.273-18.9114-17.549 4.0356-3.424-6.403-10.271-1.5724-12.105 3.2407-1.284 9.5998-3.485 13.024-2.324 4.4636 1.468 2.2624 6.36-.5503 8.072-4.0356 2.446 6.036 8.741 1.9392 11.248-4.5247 2.752 14.1355 12.413 9.9776 15.715-3.3019 2.629.618 1.406-2.745 3.913a19.4963 19.4963 0 00-2.6292 2.201c-.1223.123 0 1.162-.4281 1.651-1.9566 2.079-1.5286 1.835-4.4636 1.101-3.4853-.856-11.801-2.752-14.1246 1.529-2.1401 3.913 6.5426 7.398 9.3553 8.56 4.1579 1.712 5.1362 3.485 8.1323 6.787 3.0573 3.424 8.1324 5.687 11.9234 8.255 8.2547 5.442 17.5488 9.355 26.4149 13.696 8.6215 4.219 17.8545 7.277 26.8429 10.212 5.442 1.773 11.9237 3.73 17.6097 4.28 5.748.55 11.129-.367 16.693-1.468a43.204 43.204 0 006.298-1.589c1.039-.367 2.752-.428 3.608-1.04 1.284-.978.733-1.773.978-3.485.978-7.521 6.176.856 8.499 3.363 1.773 1.957 3.547 4.28 5.87 5.503 2.935 1.529 3.424.795 4.403-1.712 1.773-4.708 2.445-10.089 9.294-9.417-5.381-4.585-10.456-8.499-15.042-14.002-4.525-5.442-8.744-11.312-13.085-16.876-3.547-4.586-6.665-10.884-11.312-14.553-1.468-1.162-5.931-3.791-7.582-3.73-2.507.062-4.77 4.219-7.521 4.586-2.996.367 2.367-1.712 1.511-4.158-.917-2.507 1.118-4.83.384-6.664-.183-.49-1.467-1.101-1.895-1.896-.612-1.101-.612-2.568-.489-3.852.244-1.835.917-2.629.795-4.464-.184-2.14-1.101-3.73-.367-5.992.795-2.385-3.486-3.241-1.957-5.014 2.262-2.629 1.101-4.647.184-8.071-1.957-7.277-4.22-14.492-6.2373-21.829-4.586 1.467-14.8318-2.691-19.4177-1.345-4.4025 1.284-40.3827-2.752-44.4795-.673-2.4458 1.223-11.8344-2.079-11.6509.611.1222 1.774.856 3.73 1.2229 5.504.6114 3.24 8.3668 38.72 9.3668 42.801 0 1.774 2.3898 3.18 4.0407 5.076 1.4064 1.589 22.5794 2.445 23.4354 4.219.5503 1.1 11.892-.49 12.5646.489 1.3452 2.079 5.5179-.859 8.1026-.489C84.5 238.5 86 239.5 88.7783 240.124c1.2217.376 1.8955 1.04 3.5465 1.529 4.0991 1.28 6.8608-1.487 10.3332 1.039 1.835 2.201 14.859 15.287 9.172 16.938-2.751.794-7.582-5.381-9.538-7.032a34.4722 34.4722 0 00-9.9672-5.748c-9.0496-3.485-17.3042-6.604-27.1487-5.197-4.219.611-22.457-1.712-26.6761-2.14-4.2802-.428-4.0407.244-6.0407-2.079 0-4.647-1.5-2.996-2.5-6.482-1-3.485-1-3.913-1-7.765-1-3.406-1.0051-5.136-2-9.111-1.5-5.992-3.7012-13.391-3.0897-14.43.4891-.856-2.5689-8.01-2.8747-8.989-1.4063-4.952-2.8738-9.844-4.0356-14.858-1.1006-4.586 31.5241 3.057 36.3546 1.406 7.3986-2.568 30.2671 1.651 37.6657-.733-1.3452-3.425-5.442-.551-8.377-.673-3.6076-.122-7.8266-1.345-11.2508-2.446a20.58 20.58 0 01-9.6652-6.364 20.5813 20.5813 0 01-4.704-10.573c-.2446-1.773.5503-5.381-.0611-6.91-.6115-1.467-2.3236-2.201-3.6076-3.24a31.066 31.066 0 01-7.8878-10.334 18.6558 18.6558 0 01-.856-12.351c.5503-2.263.856-2.569.0611-4.709-.9172-2.445-2.4458-4.647-3.3018-7.215a39.251 39.251 0 01-2.079-13.0238c.0612-4.9528 2.079-7.154 3.363-11.4954 1.0395-3.4241-.3669-8.1935-.1223-11.9845A31.9182 31.9182 0 0146.221 62.007c3.3019-6.6649 8.5604-13.8189 15.3476-17.3042 1.3452-.6726 3.5464-.7338 4.7693-1.5287 1.4675-.9783 1.5898-2.4458 2.2012-4.219 1.4064-4.1579 3.1185-7.5209 6.1757-10.7616 9.7833-10.3336 26.9652-14.0024 40.7842-13.1463 2.446.1834 4.83 1.3452 7.154.6114 1.651-.4892 3.363-2.1401 5.014-2.8738a21.8794 21.8794 0 016.543-1.651 26.005 26.005 0 0112.29 1.5287c1.59.5503 3.057 1.2229 4.586 1.8343 2.446.9784 2.323.4892 4.586.0612 4.586-.9172 7.215-.2446 11.25 1.7121 1.101.4891 2.813.9172 3.73 1.6509 1.284 1.0395 1.835 4.1579 3.302 4.7694.795.3057 3.302-.8561 4.342-1.0395 1.834-.3058 3.668-.0612 5.503-.0612 3.24-.0611 6.664.0612 9.661 1.651 2.262 1.1617 4.952 3.363 6.848 4.8916 2.69 2.079 4.341 5.9311 7.643 7.0318 1.284.428 2.691 0 4.036.3668 1.712.4892 3.424 1.7121 4.83 2.8127 2.446 1.8955 4.464 6.3592 6.91 7.0929 1.651.4892 4.219 0 6.053.4892a12.754 12.754 0 016.054 3.4241c3.363 3.4242 4.28 8.4381 4.402 13.0241.061 1.2229-.734 4.7693 0 5.8699.673.9784 3.18 1.5287 4.158 2.5681 3.179 3.1185 4.586 8.377 4.953 12.6572.367 4.8916-.917 8.3769-1.774 13.0851-.55 2.935-1.222 1.0395 1.223 2.7516 1.712 1.1622 2.874 2.0182 3.975 3.8522 2.323 3.913 2.874 8.499 2.507 12.902-.489 5.503-3.302 9.661-4.525 14.858 5.809 0 12.046 1.529 17.732 2.629 2.079.367 3.73 1.529 5.564 2.446 1.59.795 2.813.917 4.342 1.407 3.669 1.284 2.935 1.039 5.503-1.529 10.15-10.395 24.58-16.693 39.194-16.509 8.133.122 16.02 1.161 23.602 4.096 3.18 1.223 6.665 2.507 9.417 4.403 3.241 2.201 3.73 2.201 8.01 2.262 15.47.306 30.512 8.622 41.824 18.711.978-6.787 11.984-10.823 17.304-13.636 1.834-.978 3.485-1.467 4.402-3.24.856-1.651.795-5.137 1.345-7.093 1.04-3.608 2.202-8.072 2.141-11.924-.245-11.128-2.813-22.1344-3.18-33.2629-.061-2.8127-.428-5.9312 0-8.6827.306-2.2013 1.345-3.6076-.122-5.6866-2.752-3.9133-7.888-4.8916-9.6-10.0278-2.752-8.3158 2.018-16.8151 8.499-21.7679 3.73-2.8738 7.399-3.4241 10.395-7.4597 2.69-3.6076 5.014-7.8267 8.071-11.1285 2.568-2.7516 4.953-6.4203 7.888-8.6827 3.057-2.3236 7.521-3.9133 11.128-5.014 8.805-2.3846 19.506-1.712 25.62 5.7477zm-272.098 208.69c-2.017.061-4.035.306-6.114.306-1.223 0-4.097-.673-5.198-.184-2.201.917-4.035 6.115-5.075 8.133-3.363 6.664-5.992 13.635-9.294 20.3-1.712 3.485-4.28 5.748-8.316 5.809-4.524.061-6.664-2.813-9.477-5.809-5.687-5.931-13.391-11.006-20.484-15.103-7.643-4.464-16.815-8.744-25.498-10.334-5.808-1.039-9.171-8.682-12.657-1.406-.611 1.406-1.284 1.834-.978 4.892.245 2.262 1.039-.367 0 3.24.367 2.324.55.734 1.101 4.036.305 1.773 1.1 1.529 0 2.14-1.991 1.083 1.409.225-.123 1.896 2.691 0-3.852 1.039-1.284 1.284 1.04.122 2.324 1.712 3.302 2.14 1.369.647 2.836 1.06 4.341 1.223 3.302.428 5.259-.551 7.888 1.589 2.324 1.896 4.77 4.464 6.971 6.604 4.647 4.586 8.438 10.334 12.412 15.47a76.264 76.264 0 0016.51 16.081c5.319 3.852 10.7 6.359 16.692 9.233 5.87 2.813 13.33 6.054 19.995 6.176 5.32.122 11.985-1.59 16.876-3.852 2.813-1.345 3.852-1.345 6.665-1.835 4.403-.794 9.478-3.179 13.513-5.014 12.719-5.808 20.851-18.466 26.599-30.817a83.66 83.66 0 006.664-21.523c.734-4.158 1.407-5.136-2.629-6.848-4.097-1.713-8.499-2.813-12.779-4.036-12.535-3.547-26.782-4.341-39.623-3.791zm30.451-75.087c-1.284.55-1.957 6.665-2.507 8.071-2.568 6.054-7.093 9.845-13.697 10.517-2.079.184-5.442-1.651-6.909-.795-1.957 1.162-2.324 6.849-4.464 8.744-1.956 1.712-6.053 3.547-8.56 4.158-1.914.439-3.905.418-5.809-.061-1.101-.245-3.18-1.59-4.28-1.101-1.835.856-2.691 5.504-4.77 7.093-3.057 2.324-7.948 4.036-11.678 3.975-3.852-.061-8.5-3.119-11.985-2.385-4.097.856-3.546 4.647-5.32 7.643-3.791 6.298-8.071 11.74-14.919 14.736-7.399 3.241-17.916 3.669-25.681 2.018-4.219-.917-8.438-2.201-11.985-4.586-2.812-1.895-4.953-4.463-7.582-6.665l-.428-.366v.061c.061.183.122.428.184.611 1.223 3.975 1.773 11.006 4.28 14.247 2.201 2.874 9.905 3.057 13.635 3.424 9.906 1.04 18.466 3.363 27.21 8.377a150.0411 150.0411 0 0123.297 16.754c1.467 1.284 2.69 3.302 4.463 4.158 2.935 1.345 2.691-.245 3.485-2.874 1.59-5.381 3.302-10.7 5.748-15.775 1.04-2.202 3.424-4.892 3.913-7.155.49-2.201-.489-4.647-.183-7.031.856-5.993 3.546-11.129 6.971-15.959 2.384-3.363 9.416-9.111 8.499-.612-.673 6.237-5.259 11.801-6.359 17.977 3.485-.673 5.625-.428 8.744-.244 4.28.244 9.11-1.407 13.513-1.407 8.379-.062 16.747.613 25.008 2.018 3.806.605 7.55 1.546 11.19 2.813 2.874 1.039 6.787 4.341 9.844 4.586 2.263.183 1.468.489 2.079-1.468.551-1.773-.061-4.953-.183-6.848-.245-4.219-1.284-8.316-1.773-12.474-.245-1.773-2.385-9.294-.123-10.762 3.486-2.201 4.892 6.482 5.32 8.072 2.262 8.01 3.73 15.898 3.669 24.274.006 7.176-.628 14.338-1.896 21.401a62.4853 62.4853 0 01-3.913 12.291c-.856 2.079-5.931 10.028-5.259 11.434.551 1.101 9.233-.856 10.517-.917 4.709-.428 9.478-.123 14.186-.428 6.971-.428 14.064-.306 20.729-1.59 3.974-.734 8.254-.061 12.229 0 4.402 0 8.682-.367 13.085.061 3.363.306 8.438 2.079 11.679 1.345 3.302-.733 2.323-2.996 2.384-6.359.062-8.193-.672-17.61-2.507-25.559-.978-4.219-2.262-8.254-2.935-12.535-.672-4.28-.672-8.866-1.956-13.024-2.263-7.337-8.561-13.696-13.758-19.077-5.32-5.564-11.312-9.6-17.855-13.635a144.2832 144.2832 0 00-17.487-9.233c-7.277-3.18-15.47-5.137-22.196-9.356a79.1535 79.1535 0 00-20.117-8.56c-.856-.184-6.053-2.385-6.787-2.018zm199.09-67.7492c-4.647.6725-13.33-1.5898-13.33 4.7693 0 3.5465 1.162 7.2152 1.529 10.7005.367 4.1579.122 8.3158.734 12.4734 1.039 6.726 2.507 12.902 2.017 19.75-.55 7.46-2.079 14.675-1.956 22.257.122 7.215-.245 14.186 3.179 20.79 1.468 2.813 2.63 6.053 4.219 8.683 1.896 3.057 3.486 3.974 6.849 5.197 2.079.795 7.215 1.773 8.56 3.852 1.957 2.996-.673 4.219-3.241 4.097-7.949-.306-16.081-3.852-23.541-6.42-3.485-1.223-6.848-2.752-10.333-4.097-2.752-1.04-5.014-1.407-7.521-3.241-6.115-4.402-10.823-10.517-16.815-15.042a79.233 79.233 0 00-39.256-15.225 47.5552 47.5552 0 00-10.211.122c-2.018.184-4.036.245-6.053.612-1.162.244-5.565 2.323-6.482 1.834-5.931-2.813 10.823-11.373 12.718-11.801-2.384-1.651-7.337-1.406-10.15-1.773-3.577-.579-7.2-.825-10.823-.734-5.136.306-10.578.122-15.653 1.223a73.2554 73.2554 0 00-18.038 6.543c-1.895.978-4.586 2.201-4.586 5.013 0 2.63 1.04 2.202 3.608 2.752 6.848 1.59 13.207 6.115 19.322 9.6a200.894 200.894 0 0119.016 12.229c11.557 8.438 18.16 20.667 23.297 33.875a92.1395 92.1395 0 015.38 22.134c.918 8.133.123 16.265.795 24.397.123 1.896.428 9.539 1.835 10.762 1.1.917 6.542-.734 8.071-.795 6.42-.428 12.841-.428 19.139-.734 13.268-.794 26.904.306 40.356-.489 6.701-.411 13.363-1.31 19.933-2.69 6.176-1.284 13.819-1.406 19.444-4.341 10.823-5.626 17.366-19.2 17.855-30.696.547-12.87-.438-25.761-2.935-38.399-1.345-6.481-2.568-12.718-4.158-19.139-1.834-7.215-3.852-14.369-5.809-21.462-3.424-12.229-8.744-23.663-11.251-36.198-1.406-6.9093-3.363-14.1245-5.442-20.8505-.733-2.507-2.262-7.2152-4.035-9.1107-1.896-1.9567-3.424-.7949-6.237-.428zM164.599 139.417c-3.363.551-3.73 2.018-5.32 4.342a3.626 3.626 0 01-1.345-2.263c-7.949 3.547-16.204 6.359-24.764 7.705-9.6 1.467-19.567-.734-29.35-1.651-1.284-.123-5.1361-1.651-6.1756-1.04-.856.489-.856 4.831-.9171 5.626-.4892 5.686.6114 10.639 1.4674 16.203.2446 1.468.0001 4.647 1.1618 5.931.7945.856 2.2625.551 3.3015 1.896 2.813 3.607 3.669 10.578 4.953 15.225l.061.122v-.061c.428-4.769 4.097-2.323 6.849-1.039a45.7704 45.7704 0 0012.963 3.485c3.607.489 7.704 1.712 11.373 1.529 3.913-.184 8.682-1.712 12.473-2.874 3.608-1.04 5.565-3.302 8.01-6.237 2.385-2.813 4.953-4.708 7.46-7.215 6.42-6.298 4.647-19.261-.917-25.437 4.525-2.323 12.351-7.398 5.503-12.596a9.5453 9.5453 0 00-6.787-1.651zm-56.927 52.096v.062l.061.061-.061-.123zm22.013-10.822c1.773.122 3.057 1.467 2.568 3.301-.612 2.324-4.647 3.791-6.665 3.914-5.381.672-.245-7.521 4.097-7.215zm-16.938-8.928c.184 1.346 0 2.202 1.162 2.63.917.366 2.568-.367 3.669.122s1.162.734 1.834 1.834c-.795 2.385-4.28 5.075-7.093 3.669-3.485-1.773-3.852-8.866-2.873-11.862 1.65-5.136 2.996 1.59 3.301 3.607zm311.66-27.026c-1.468.55-2.752 2.018-4.036 2.874-3.485 2.201-7.276 3.363-10.639 5.748 2.384 2.568 3.607 6.053 5.931 8.499 1.467 1.528 3.24 1.712 4.953 2.568 5.136 2.446 11.128 5.931 16.753 7.093a41.8885 41.8885 0 01-7.337-12.046 54.166 54.166 0 01-2.079-5.197c-.734-2.507-.367-5.137-.978-7.582-.673-2.752.244-2.935-2.568-1.957zm-321.321 14.675c1.468 1.773 2.63 5.686 2.752 7.949-1.59 7.521-6.7872-2.874-6.6649-6.237.1223-3.118 1.7729-4.219 3.9129-1.712zm14.247-4.097c2.568 2.201 3.363 5.809 3.669 8.805.306 3.241-.428 4.647-3.669 2.568-2.812-1.834-4.28-6.726-4.402-9.538-.061-3.302 1.895-3.975 4.402-1.835zm51.24-9.355c.612 3.363-6.848 6.848-5.625 1.59-.306-3.363 4.953-5.137 5.625-1.59zm354.584-61.3291c-5.687 6.9094-12.535 11.3119-19.628 16.5701-6.298 4.647-12.29 9.661-19.077 13.513-2.018 1.101-5.259 1.774-5.626 3.914-.367 1.956 3.302 7.276 4.158 9.416 2.874 7.215 4.953 14.614 7.215 22.074 6.665-10.395 13.391-20.973 21.523-30.328 7.216-8.316 14.614-16.938 20.912-25.865a33.4707 33.4707 0 01-9.477-9.2941zm41.579-16.0202c-6.298 1.9567-13.575 3.0573-20.178 2.3847-2.997-.3057-5.931-.5503-8.928-.7338-2.262-.1223-6.053-1.2229-8.01.4892-1.834 1.6509-1.589 4.8916-.672 6.9706.611 1.3452 1.467 1.5286 2.017 2.6293.184.3668-.366.9783.123 1.7732 1.223 2.2624 5.503 6.1145 7.765 7.2763 2.935 1.4675 3.363-.2446 5.687-1.7732 4.83-3.1796 12.902-3.2407 18.588-3.791.122 1.2229 16.448-4.6471 18.099-5.6866 2.996-2.0178 6.543-11.2508 3.363-13.9412-3.974-3.2407-14.063 3.2407-17.854 4.4025zM454.735 24.7082a37.9285 37.9285 0 01-7.582 8.9272c-3.302 2.6904-7.644 3.7299-11.435 5.5643-3.424 1.6509-6.481 3.3018-8.621 6.5425-1.468 2.2013-4.219 5.3197-2.935 8.1936 1.284 2.9349 6.237 4.9528 8.438 7.5209 2.996 3.4853 2.996 2.8127 7.46 1.8343a27.0426 27.0426 0 016.665-.5503c.917.0612 4.035.9172 4.891.3058 1.04-.7949 0-4.0357.123-5.2586a23.0122 23.0122 0 011.528-5.6865c2.568-7.154 7.399-11.8623 12.168-17.3042 5.075-5.8088 12.046-9.9056 16.999-15.7756 2.751-3.2407 1.528-5.5031-2.263-7.0317-1.895-.7949-4.158-.7949-6.175-1.4064-2.018-.6114-3.853-1.8955-6.054-1.8955-9.355-.4892-9.661 10.2725-13.207 16.0202z" fill="#1A202C"/><path d="M282 139.5l26.5-13L348 129l51.5 22 30-9 6-42-4.5-30.5h23.5l17 44.5L524 83l11 12-46 61 7 29.5-14 66-122.5 11-9.5-67-68-56z" fill="#1A202C"/><path d="M426 128.5c0 19 5 41 7 43.5M388.5 135c14.07 7.885 44.852 34.615 48.5 42.5 3.648 7.885 4 9.5 4 9.5" stroke="#1A202C" stroke-width="3"/></svg>
