<svg viewBox="0 0 1082 711" fill="none" xmlns="http://www.w3.org/2000/svg"><path fill-rule="evenodd" clip-rule="evenodd" d="M748.424 150.224c11.035 7.624 23.693 12.833 35.225 19.7 2.886 1.718 11.879 5.287 11.792 8.475-.051 1.864-2.754 4.201-3.937 5.493a131.887 131.887 0 00-5.805 6.79c-8.563 10.72-16.627 21.542-25.908 31.723-1.397 1.532-5.606 8.845-6.965 5.213-.616-1.647-.109-3.498-1.714-5.033-.826-.791-4.019-1.226-3.089-2.923l1.861.814c-.482-1.356-.447-2.841-1.169-4.122-.449-.796-1.326-1.173-1.63-2.069-.42-1.239.293-2.678.173-3.955-.117-1.273-.796-2.477-1.201-3.678-2.401-7.121-3.263-14.299-4.492-21.645-1.217-7.27-3.111-14.311-3.855-21.662-.786-7.763-1.749-15.511-3.034-23.213 2.293.313 4.056 2.737 5.679 4.108 2.55 2.154 5.318 4.083 8.069 5.984zm-8.651 75.164a4.291 4.291 0 01-1.235-1.483c5.408-2.606 2.145 1.84 1.235 1.483zm-3.289-5.559c-2.357.632-4.051.76-5.869-.183-.172-.089.026-.779-.285-.921-.272-.122-.686.03-.919-.086-.791-.391-2.177.467-2.312-1.032 3.009-.896 5.968-2.549 9.144-2.827 4.415-.387 4.211 3.984.241 5.049zm-10.329-8.642c-3.217.732-5.867 2.441-9.284 1.994-3.209-.417-5.997-2.036-8.527-3.901 6.331-1.743 12.97-2.057 19.295-3.744 2.06-.549 4.766-1.996 6.986-1.413 2.466.648 2.621 2.895 3.361 4.94-3.947.69-7.924 1.236-11.831 2.124zm-20.119-8.675c-3.09.718-6.249 2.289-8.833-.422-.417-.437-.782 0-.733-1.348.052-1.42 1.377-2.335 2.518-2.836 2.681-1.175 6.439-.415 9.286-.588 4.541-.275 9.164-1.193 13.656-1.9 3.111-.489 6.324-1.575 9.503-1.361 2.454.166 5.415 2.2 1.838 3.685-3.257 1.352-8.142 1.145-11.671 1.73-5.217.866-10.415 1.843-15.564 3.04zm-3.019-14.142l.601.595c-.033-.007 1.185-.966 1.507-.994 1.567-.133 3.143-.028 4.712-.114 3.616-.198 7.26-.811 10.811-1.486 2.892-.549 5.839-1.497 8.816-1.259 2.578.205 2.849.719 3.017 3.138-6.579 0-13.357-.135-19.823 1.22-4.21.882-8.85 3.507-10.959-1.226l1.318.126zm4.114-10.244c1.632 1.209 6.079-.801 8.035-1.002 2.123-.219 4.121-.446 6.179-.96 1.825-.457 7.862-2.738 9.262-.556 2.145 3.342-6.543 3.955-7.92 4.121-5.777.694-11.771 1.309-17.392 2.783l1.836-4.386zm7.924-11.352c.422 1.545 13.486-4.148 13.724-.011.183 3.175-12.925 4.756-15.282 4.478.552-1.462 2.02-2.771 1.558-4.467zm4.386-9.711c.278-3.116.708-3.098 3.277-3.392 1.96-.224 4.653-1.341 4.143 2.056-.437 2.909-7.699 4.48-7.42 1.336zm4.67-10.722c.618-1.673 2.009.579 2.039 1.43.077 2.264-1.687 1.774-3.386 1.774a76.659 76.659 0 001.347-3.204zm21.501-12.558c-.346-.406-2.291-.561-2.844-.758-1.362-.485-1.168-1.519-2.91-.499-.087-.086.079-.853-.016-.888-.048-.018-1.268-.466-1.665-.713-.957-.596-1.819-1.179-2.698-1.927-.935-.795-1.871-1.948-2.939-2.581-.45-.267-.818-.645-1.361-.726-1.408-.212-1.005.742-2.236.932-.758.117-1.311-.744-2.302-.373-.857.321-1.354 1.49-1.736 2.185-1.388 2.532-2.459 5.257-3.818 7.816-6.95 13.086-14.848 25.674-21.58 38.882-3.242 6.362-6.625 12.769-8.907 19.531-1.645 4.876-5.361 12.001-2.164 16.874 2.324 3.543 6.979 5.073 10.692 6.785 5.587 2.576 10.738 5.943 16.387 8.44a416.317 416.317 0 0119.843 9.42c2.8 1.418 5.327 3.461 8.118 4.805 1.707.821 4.343-.581 4.899 1.303 2.139-2.521 5.603-.841 8.078-2.615 1.456-1.044 2.52-3.101 3.734-4.387 1.822-1.927 3.799-3.716 5.657-5.61 7.377-7.522 14.188-15.357 20.9-23.437 6.41-7.716 13.899-15.005 19.314-23.451 2.15-3.353 2.54-6.869 1.121-10.573-1.036-2.702-3.533-6.782-7.098-4.993 1.352-2.183-3.863-4.515-5.446-4.942-.024-.006-.335 1.671-.777 1.629.158.015-1.325-3.716-1.977-4.195-1.934-1.424-4.287-3.085-6.397-4.257-1.936-1.074-3.978-1.607-5.853-2.81-2.273-1.457-4.359-3.185-6.64-4.633-2.203-1.397-4.658-3.049-7.093-4.01-2.111-.834-4.007-.997-5.906-2.363-2.35-1.69-4.399-2.837-7.109-4.001-2.345-1.007-5.594-1.887-7.271-3.86zM425.591 336.164l1.292-2.954c.533 1.717.682 2.57-1.292 2.954zm.574 4.549c-.934.162-.566-2.687-.566-3.184 1.613.888.277 1.953.566 3.184zm-1.456-8.221l2.388-1.372c-1.108 1.998-.673.75-.216 2.084-.836.234-1.649-.039-2.172-.712zm-4.718 15.616c-2.984 10.531-12.463 18.837-22.474 23.14-5.753 2.471-11.409 3.09-17.621 2.814-2.396-.106-5.216-.863-7.521-.723-1.776.109-1.696.184-3.166 1.646-.651-1.166-.18-1.983-1.485-2.662-1.628-.846-2.304.139-3.112 1.311-1.057-1.065-1.49-1.622-2.859-2.255.043.021-1.311-.029-1.256-.013-.245-.073-1.718-.994-2.179-1.162-1.892-.691-4.08-.975-5.827-1.965-1.527-.865-2.785-3.294-4.533-1.428-.001-3.118-4.32-4.411-6.344-6.045-3.163-2.552-5.677-6.331-7.254-9.986-1.682-3.898-2.243-7.635-3.03-11.652-.549-2.807-4.15-6.864-1.988-9.697.515 1.188.274 2.404 1.129 3.481.77-1.443 1.193-3.057 1.541-4.637.171-.773 1.161-3.044 1.049-3.718-.229-1.38-1.984-1.454-1.011-3.145 2.019 2.136 3.648-1.616 2.123-3.111-.753.826-1.03 1.764-1.377 2.787-1.985-3.897 3.509-2.642 2.307-6.16 2.005-.375 3.157-.867 3.92-2.794.847-2.144.224-2.611 2.148-4.028.662-.487 2.535-1.187 2.878-1.988.662-1.548-1.024-2.007.453-3.458.499.852 2.444 2.537 3.509.933.213-.319-.683-.546-.031-1.283.964-1.091 2.044-2.16 3.675-1.931-1.292-3.141 6.963-3.39 9.078-4.131 2.118-.743 3.916-1.23 6.163-1.402 2.244-.173 2.356-.812 4.256-2.126.161 1.88.626 1.467 2 1.798.33-.551.669-.613 1.016-.185.345.319.767.468 1.264.45.754.039 1.611-.057 2.401-.041 1.857.035 3.771-.116 5.592-.078a3.76 3.76 0 001.32-.477l.515.945c.965.118 1.039 1.294 2.226.008.351 1.635 1.359.784 2.425 1.227.972.406 1.126 1.053 2.023 1.504.59.465 1.222.527 1.898.186.643.463 1.296.913 1.958 1.35 1.22.67 2.659 1.081 3.944 1.61.856.343 1.706.7 2.549 1.07.025.99.482 1.34 1.369 1.049.801.652 1.027.627 1.804 1.737 1.762 2.517 3.325 4.473 5.55 6.722 9.671 9.781 12.642 23.608 8.985 36.513zm2.968-41.589c-4.366-5.687-10.546-12.199-16.1-15.791-2.815-1.821-6.766-5.09-10.208-6.053-.816-.228-1.661-.243-2.463-.483-.62-.185-.957-.804-1.664-.915-.494-.078-.549.998-1.074.899-1.098-.208-1.794-1.268-2.569-1.93-1.665 2.791-2.569-1.903-5.015 1.253-2.91-4.439-9.747-3.469-14.394-3.245-1.378.066-2.026.543-3.248.897-1.137.329-1.249.244-2.491.235-3.093-.023-5.838.355-8.697 1.676-4.803 2.219-9.211 5.676-13.773 8.351a56.757 56.757 0 00-13.594 11.164c-14.101 15.806-17.871 38.877-6.628 57.201 17.858 29.102 63.923 32.212 90.026 12.466 20.166-15.257 27.841-44.955 11.892-65.725zM643.993 224.623c-.501 1.163-5.181.772-5.284-.6-.152-2.049 6.155-1.421 5.284.6zm4.972-.761c2.652.21 7.01 1.962 9.566.904 3.901-1.617-.196-4.097-2.288-4.838-2.13-.754-5.302-.354-6.397-2.52-.823-1.628 1.212-6.176-1.313-5.445-2.65.767-1.88 7.281-6.038 5.085-1.983-1.047-1.174-7.429-4.496-4.169-.909.892-.989 2.53-2.193 3.195-1.229.679-2.77-.029-4.067.031-3.435.156-4.529 3.281-1.049 4.521 1.288.459 6.143 1.019 3.202 3.066-1.853 1.29-5.97-1.417-7.561.829-2.188 3.084 3.672 3.153 5.245 4.076 2.667 1.562.464 5.211.677 7.81.326 3.971 2.697 3.141 3.559-.219.73-2.852-.175-6.955 4.243-5.822 7.196 1.845-4.001 10.73 1.27 13.004 3.361 1.45 3.836-6.387 4.097-7.737.967-4.981 3.843-3.818 8.201-3.665 5.09.178 6.319-3.485.928-4.534-1.72-.335-4.086.088-5.579-.978-.884-.629-2.099-2.758-.007-2.594zM461.009 386.591c-4.12-1.435-11.012-1.125-12.032 4.05-.426 2.167.404 4.459 1.943 6.033 1.784 1.825 4.625 1.994 4.473-1.184-.106-2.2-2.258-4.11 1.526-4.553 2.354-.276 5.837 1.437 5.954 3.966.264 5.702-9.883 6.15-13.623 5.163-7.422-1.956-5.405-9.517-.308-12.968 1.316-.892 5.094-2.266 5.267-4.118.229-2.456-2.894-1.954-4.424-1.631-11.251 2.383-13.703 20.715-1.947 24.171 5.338 1.569 12.857-.051 16.074-4.754 3.017-4.409 3.057-12.099-2.903-14.175zM311.834 256.812l-10.55 4.94c-1.162-2.419-3.126-9.03-6.075-9.874-4.774-1.366-1.734 5.839-.91 7.487.677 1.353 2.246 3.45 1.865 5.063-.511 2.173-3.663 2.943-5.313 4.064-4.083 2.776-4.05 8.604 1.863 6.134 3.346-1.398 7.489-5.275 10.053-.873 1.184 2.031 3.99 13.378 6.92 5.958 1.813-4.595-6.914-9.368-2.611-13.255 1.385-1.251 3.006-1.356 4.39-2.075 3.341-1.737 1.457-4.946.368-7.569zM827.438 92.402c-2.097-.746-4.691-2.203-7.021-1.706-2.477.527-3.474 2.94-5.275 4.39-4.896 3.945-7.747-1.934-10.438-5.156-2.54-3.041-5.64-3.78-9.225-1.91-1.428.745-7.445 4.159-6.395 6.346.754 1.574 3.727.161 4.741-.183 2.201-.745 4.245-1.397 6.496-.31 4.223 2.037 5.319 7.623 10.428 8.494 5.283.9 5.456-3.99 9.227-5.83 2.527-1.234 4.288.95 6.727.515 2.323-.414 3.398-3.704.735-4.65zM784.785 112.11c1.868.395 3.088-3.13 4.257-4.024 1.941-1.482 5.304-1.781 7.28-.289 3.858 2.911 2.528 9.198 8.022 10.836 4.91 1.465 7.222-4.825 11.355-6.391 2.403-.911 5.041-1.507 4.103-4.774-.647-2.259-2.555-2.84-4.629-1.972-3.565 1.49-4.775 7.562-9.001 7.67-4.373.113-4.847-6.019-6.724-8.689-2.862-4.07-8.745-5.054-12.088-1.162-1.009 1.175-6.134 8.046-2.575 8.795z" fill="#473F3E"/><path fill-rule="evenodd" clip-rule="evenodd" d="M40.429 16.992c-.236 3.69-.526 7.473-2.643 10.42-1.022 1.466-1.753 2.858-3.69 3.744-1.3.97-4.353 1.086-4.079 3.115l.038.152.038.152c.638 1.938 2.975 1.113 4.578 1.36 1.747.209 3.426.758 5.016 1.572 3.252 1.61 5.445 2.676 7.44 5.729 1.791 2.86 3.924 1.522 3.794-.543-.35-6.044.495-6.98 7.204-12.526 1.681-.984 2.22-1.602 1.839-3.443-.455-1.823-3.54-1.215-4.922-1.193-5.915-.543-7.884-2.875-10.484-8.358-.874-1.96-3.909-3.624-4.13-.18zM10.429 97.992c-.236 3.69-.526 7.473-2.643 10.421-1.022 1.465-1.753 2.857-3.69 3.743-1.3.97-4.353 1.086-4.079 3.115l.038.152.038.152c.638 1.938 2.975 1.113 4.578 1.359 1.747.21 3.426.759 5.016 1.573 3.252 1.609 5.445 2.676 7.44 5.729 1.791 2.86 3.924 1.522 3.794-.543-.35-6.044.495-6.981 7.204-12.526 1.681-.984 2.22-1.602 1.838-3.443-.454-1.823-3.54-1.215-4.92-1.193-5.916-.543-7.885-2.875-10.485-8.358-.874-1.96-3.909-3.624-4.13-.18zM70.429 88.992c-.236 3.69-.526 7.473-2.643 10.42-1.022 1.466-1.753 2.858-3.69 3.744-1.3.97-4.353 1.086-4.079 3.115l.038.152.038.152c.638 1.938 2.975 1.113 4.578 1.359 1.747.21 3.426.759 5.016 1.573 3.252 1.609 5.445 2.676 7.44 5.729 1.791 2.86 3.924 1.522 3.794-.543-.35-6.044.494-6.981 7.204-12.526 1.681-.984 2.22-1.602 1.838-3.443-.454-1.823-3.54-1.215-4.92-1.193-5.916-.543-7.885-2.875-10.485-8.358-.874-1.96-3.909-3.624-4.13-.18zM383.429 518.992c-.236 3.69-.526 7.473-2.643 10.421-1.022 1.465-1.753 2.857-3.69 3.743-1.3.97-4.353 1.086-4.079 3.115l.038.152.038.152c.638 1.938 2.975 1.113 4.578 1.359 1.747.21 3.426.759 5.016 1.573 3.252 1.609 5.445 2.676 7.439 5.729 1.792 2.86 3.925 1.522 3.795-.543-.351-6.044.494-6.981 7.204-12.526 1.681-.984 2.22-1.602 1.838-3.443-.454-1.823-3.539-1.215-4.921-1.193-5.915-.543-7.884-2.875-10.484-8.358-.874-1.96-3.909-3.624-4.129-.181zM682.429 566.992c-.236 3.69-.526 7.473-2.643 10.421-1.022 1.465-1.753 2.857-3.69 3.743-1.3.97-4.353 1.086-4.079 3.115l.038.152.038.152c.638 1.938 2.975 1.113 4.578 1.359 1.747.21 3.426.759 5.016 1.573 3.252 1.609 5.445 2.676 7.439 5.729 1.792 2.86 3.925 1.522 3.795-.543-.351-6.044.494-6.981 7.204-12.526 1.681-.984 2.22-1.602 1.838-3.443-.454-1.823-3.539-1.215-4.921-1.193-5.915-.543-7.884-2.875-10.484-8.358-.874-1.96-3.909-3.624-4.129-.181zM712.429 533.992c-.236 3.69-.526 7.473-2.643 10.421-1.022 1.465-1.753 2.857-3.69 3.743-1.3.97-4.353 1.086-4.079 3.115l.038.152.038.152c.638 1.938 2.975 1.113 4.578 1.359 1.747.21 3.426.759 5.016 1.573 3.252 1.609 5.445 2.676 7.439 5.729 1.792 2.86 3.925 1.522 3.795-.543-.351-6.044.494-6.981 7.204-12.526 1.681-.984 2.22-1.602 1.838-3.443-.454-1.823-3.539-1.215-4.921-1.193-5.915-.543-7.884-2.875-10.484-8.358-.874-1.96-3.909-3.624-4.129-.181zM1046.43 289.992c-.24 3.69-.53 7.473-2.64 10.421-1.03 1.465-1.76 2.857-3.69 3.743-1.3.97-4.36 1.086-4.08 3.115l.04.152c.01.076.01.076.03.152.64 1.938 2.98 1.113 4.58 1.359 1.75.21 3.43.759 5.02 1.573 3.25 1.609 5.44 2.676 7.44 5.729 1.79 2.86 3.92 1.522 3.79-.543-.35-6.044.5-6.981 7.2-12.526 1.69-.984 2.23-1.602 1.84-3.443-.45-1.823-3.54-1.215-4.92-1.193-5.91-.543-7.88-2.875-10.48-8.358-.88-1.96-3.91-3.624-4.13-.181zM1016.43 209.992c-.24 3.69-.53 7.473-2.64 10.421-1.03 1.465-1.76 2.857-3.69 3.743-1.3.97-4.36 1.086-4.08 3.115l.04.152c.01.076.01.076.03.152.64 1.938 2.98 1.113 4.58 1.359 1.75.21 3.43.759 5.02 1.573 3.25 1.609 5.44 2.676 7.44 5.729 1.79 2.86 3.92 1.522 3.79-.543-.35-6.044.5-6.981 7.2-12.526 1.69-.984 2.23-1.602 1.84-3.443-.45-1.823-3.54-1.215-4.92-1.193-5.91-.543-7.88-2.875-10.48-8.358-.88-1.96-3.91-3.624-4.13-.181zM1061.43 1.992c-.24 3.69-.53 7.473-2.64 10.42-1.03 1.466-1.76 2.858-3.69 3.744-1.3.97-4.36 1.086-4.08 3.115l.04.152c.01.076.01.076.03.152.64 1.938 2.98 1.113 4.58 1.36 1.75.209 3.43.759 5.02 1.572 3.25 1.61 5.44 2.676 7.44 5.729 1.79 2.86 3.92 1.522 3.79-.543-.35-6.044.5-6.98 7.2-12.526 1.69-.984 2.23-1.602 1.84-3.443-.45-1.823-3.54-1.215-4.92-1.193-5.91-.543-7.88-2.875-10.48-8.358-.88-1.96-3.91-3.624-4.13-.18z" fill="#FDC777"/><path d="M737.371.066c-.2.1-14 .5-30.8.9-16.8.3-31.4.8-32.5 1-1.1.2-12.4.7-25 1-56.4 1.5-66.1 1.8-68 2.4-1.1.3-50.1.6-109 .7-120.4.2-282.1 1.3-308.5 2-20.2.6-36.8 1.9-45.8 3.7-4.9.9-7 1.9-9.7 4.6-3.6 3.6-5.2 8.4-4.1 12.5.3 1.3-.3 7.1-1.4 12.8-3.4 17.2-8 54.5-9.4 76.4-.3 4.4-.8 24.2-1.2 44.1-.3 19.8-.7 37.4-.9 39-.3 1.6-.7 18-.9 36.4-.5 31.1 0 44.1 2.8 72.5.3 3.3.8 9.4 1.1 13.5.3 4.1.8 9.1 1 11 1.5 13.4 2.3 26.9 3 48 .3 9.1.7 22.8 1 30.5.3 7.7.7 27.5 1.1 44 .6 31.5.8 33.1 5.3 35.5 2.3 1.2 6.8-.2 8.8-2.8 1.4-1.9 1.6-50.6.2-81.7-1.4-33.5-2-44.1-2.4-49.5-.8-10.2-1.5-18.4-2.9-35.5-.8-9.4-1.8-22.2-2.1-28.5-.4-6.3-.9-12.6-1.2-14-1.8-9.2-.5-157.2 1.6-184.5 1.3-16.6 4.4-42.3 6.5-54.4.7-4.4 1.1-9.1.9-10.5-.9-4.7.4-7.4 4.4-8.7 4.4-1.5 27-1.6 188.8-.6 226.9 1.4 258.4 1.5 271.5.7 7.4-.5 25.7-1.1 40.5-1.4 31.1-.7 42.3-1.1 70-2.7 23.2-1.4 97.9-1.7 120.5-.6 8.5.4 21.8 1.6 29.5 2.7 21.5 2.9 20.7 2.8 59.5 4.5 6.9.3 14.3.8 16.5 1 2.2.3 13.2 1 24.5 1.5 13.3.7 23 1.6 27.5 2.8 6.5 1.6 7.1 2 8.9 5.6 2.3 4.7 2.4 8.9 3.1 128.1.3 60.5.8 87.6 2 103.5 2.1 28.7 1.7 56-1.1 85.5-2.6 27.9-3.2 36.8-4.3 64-.4 11-.8 21.6-.9 23.5-1.1 22.3-1.7 60.9-1 62.3 1.5 3 7.7 1.7 9.4-2 .4-1 1-13.8 1.3-28.4l.6-26.7 2.8-2.7c2.5-2.5 2.7-3.5 2.8-10.4 0-4.2.2-8.7.3-10.1.2-1.4.7-11.7 1.1-23 .3-11.3 1.5-32 2.5-46 1.8-24.6 2-69.4.4-80.6-1-7.7-2-65.5-2.3-132.9-.2-73.8-1.3-95.9-5.2-106.2-1.7-4.5-8.7-13-11.7-14.2-7.1-2.8-18.7-4.5-44.2-6.6-4.1-.4-11.3-1-16-1.5-4.7-.5-18.8-1.7-31.5-2.5-12.6-.9-31.3-2.7-41.5-4.1-18.8-2.5-48.8-4.2-86.1-4.8-10.9-.2-20-.2-20.1-.1z" fill="#473F3E"/><path d="M317.471 476.966c-.2.2-11 .6-23.9 1-12.9.4-26.6.9-30.5 1.1-3.8.3-12.2.7-18.5 1-6.3.4-19.1 1.5-28.5 2.6-9.3 1-30.5 2.8-47 3.9-28.3 1.9-51.9 4.8-59.3 7.1-5.5 1.8-6.8 8.2-1.8 9.5 1.2.3 8.9-.2 17.1-1 8.3-.8 23.1-1.7 33-2.1 24.6-.8 33.5-1.3 58.5-3.7 23.2-2.1 94.2-4.7 118.5-4.2 8.3.1 39.4.3 69.3.4 50.1.1 54.3.3 54.8 1.8.3.9 1 2.4 1.5 3.2 3.1 5.1 10.4 20.2 12.4 25.8 1.3 3.7 4.7 15 7.5 25.2s6.1 21.9 7.5 26c5.3 16.4 12.2 49.1 17.4 82.2 1.8 10.9 3.6 20.9 4.1 22.3 1.1 2.8 5.3 4.9 8.2 3.9 1-.3 2.6-1.7 3.5-3 1.9-2.9 1.3-9.2-3.2-36.4-6.3-37.8-9.8-52.1-23.1-92.4-9.8-29.9-16.5-46.2-22.5-54.8-1.1-1.4-1.9-2.8-1.9-3.1 0-.7 31-.5 40.5.3 5 .5 19.4 1.5 32 2.4 12.7.9 26.2 1.8 30 2.1 7.1.5 32.5 1 89.5 2 46 .8 112 3.9 127 6 3.2.5 48.3 3.8 67.5 5 28.6 1.8 101 .8 106.6-1.5 8.5-3.6 7.5-16.4-1.4-18.8-1.9-.5-10.9-.4-21.7.3-42.9 2.8-93.3 1.7-158.5-3.4-17-1.4-29.8-2-55-2.6-12.1-.3-25.1-.7-29-1-3.8-.2-29-.7-56-1-46.8-.5-64.8-1-81.5-2-4.1-.3-17.8-1.1-30.5-2-16.1-1-51.5-1.6-117.6-1.9-52-.3-94.8-.4-95-.2z" fill="#473F3E"/><path d="M603.271 532.666c-2.5 1.5-5.2 7.3-11.9 25.4-14.1 38.2-22.7 65.1-30.1 94.5-6.5 25.7-6.5 25.4-2.8 29.1 2.6 2.5 3.7 3 5.9 2.4 4.6-1.1 5.8-3.1 9.2-15.3 1.8-6.4 4.1-14.6 5.1-18.2 1-3.6 3.4-12.6 5.4-20 5-18.3 17.7-58.2 24.2-75.9 2.9-8 5.3-15.6 5.3-16.8 0-4.8-5.9-7.8-10.3-5.2zM560.071 688.666c-22.6.5-35.7 1.2-48.5 2.8-24.8 3.1-52.9 6.2-57 6.3-4 .1-14 2.4-15.1 3.5-.4.5-1 2-1.3 3.6-.4 2.1.1 3.1 2 4.3 2 1.4 4.2 1.5 13.7 1 6.1-.4 13.2-.9 15.7-1.2 4.3-.4 25.3-2.1 53-4.4 7.2-.6 41.6-1 80.7-.9 61.8.1 68.5 0 70.8-1.5 4.8-3.2 4.2-10.6-1-12.6-3.2-1.2-70.7-1.7-113-.9z" fill="#473F3E"/><path d="M572.562 144.986l16.091 6.996-70.399 51.9L508.199 117l15.89 6.909 14.884 6.472 2.457 20.201 16.248-12.068 14.884 6.472z" fill="#41B883"/><path d="M508.199 117l10.055 86.882 70.399-51.9-16.091-6.996-42.239 31.14-6.234-52.217-15.89-6.909z" fill="#41B883"/><path d="M524.089 123.909l6.146 52.418 42.327-31.341-14.884-6.472-16.248 12.068-2.457-20.201-14.884-6.472z" fill="#35495E"/><path d="M154.405 459.899l-16.596-20.143 31.462-54.702 50.442 35.32-40.642 48.262-24.666-8.737z" fill="#264DE4"/><path d="M177.432 462.603l34.73-41.242-20.618-14.437-34.044 48.619 19.932 7.06z" fill="#2965F1"/><path d="M163.476 415.729l-3.856 6.711 14.131 9.895 4.422-6.315-14.697-10.291zM171.288 402.151l-3.848 6.717 15.26 10.686 4.422-6.315-15.834-11.088zM166.689 442.42l-.033-.012-5.703-6.823 3.077-5.351-6.339-4.439-6.058 10.535 10.421 12.648.035.012 4.6-6.57z" fill="#EBEBEB"/><path d="M190.939 379.374l7.649 5.355-2.24 3.199-4.45-3.116-2.239 3.198 4.45 3.116-2.24 3.199-7.648-5.356 6.718-9.595zM200.118 385.8l7.648 5.356-1.947 2.781-4.45-3.116-.39.556 4.45 3.116-4.479 6.397-7.648-5.355 2.044-2.921 4.45 3.116.39-.556-4.45-3.116 4.382-6.258zM209.295 392.227l7.649 5.355-1.948 2.782-4.45-3.116-.389.556 4.45 3.116-4.479 6.397-7.649-5.356 2.045-2.92 4.45 3.116.39-.556-4.45-3.116 4.381-6.258z" fill="#000"/><path d="M192.83 436.283l10.089-11.983-15.818-11.077-4.422 6.315 8.898 6.231-5.102 6.064-8.324-5.828-4.422 6.314 7.776 5.445-6.467 7.677-8.374-3.031-4.601 6.57 15.458 5.477.842-1 13.125-15.586 1.342-1.588z" fill="#fff"/><path d="M628.065 380.284a55.862 55.862 0 00-2.704-.854c.153-.625.293-1.242.418-1.849 2.046-9.961.708-17.986-3.862-20.628-4.382-2.533-11.549.109-18.787 6.423a56.129 56.129 0 00-2.091 1.924 52.494 52.494 0 00-1.392-1.289c-7.586-6.752-15.189-9.597-19.754-6.947-4.378 2.54-5.675 10.084-3.832 19.524.178.912.386 1.843.621 2.79a55.557 55.557 0 00-3.109.98c-8.893 3.108-14.573 7.98-14.573 13.033 0 5.219 6.097 10.453 15.36 13.627.731.251 1.49.488 2.271.712a55.8 55.8 0 00-.659 3.006c-1.757 9.276-.385 16.642 3.981 19.167 4.51 2.607 12.079-.073 19.449-6.532a46.781 46.781 0 001.753-1.619 55.256 55.256 0 002.271 2.077c7.139 6.159 14.19 8.645 18.552 6.114 4.505-2.615 5.969-10.527 4.069-20.154a50.093 50.093 0 00-.504-2.251c.531-.157 1.053-.32 1.562-.489 9.63-3.199 15.895-8.37 15.895-13.658 0-5.072-5.863-9.976-14.935-13.107zm-2.089 23.35c-.459.153-.93.3-1.411.443-1.063-3.374-2.497-6.962-4.253-10.669 1.675-3.618 3.055-7.16 4.088-10.512.859.249 1.693.512 2.497.79 7.773 2.682 12.515 6.649 12.515 9.705 0 3.255-5.121 7.481-13.436 10.243zm-3.45 6.854c.841 4.256.961 8.105.404 11.114-.5 2.703-1.506 4.506-2.75 5.228-2.648 1.536-8.309-.461-14.414-5.728a51.657 51.657 0 01-2.112-1.931c2.367-2.595 4.732-5.612 7.041-8.962 4.061-.362 7.897-.952 11.377-1.759.171.693.323 1.373.454 2.038zm-34.889 16.076c-2.586.916-4.646.942-5.891.222-2.65-1.532-3.751-7.446-2.249-15.379.172-.908.377-1.841.613-2.795 3.441.762 7.25 1.311 11.32 1.642 2.325 3.279 4.758 6.292 7.211 8.931a44.499 44.499 0 01-1.6 1.478c-3.259 2.856-6.525 4.882-9.404 5.901zm-12.116-22.95c-4.096-1.403-7.479-3.227-9.797-5.218-2.084-1.788-3.136-3.564-3.136-5.005 0-3.067 4.56-6.978 12.166-9.636a51.046 51.046 0 012.891-.912c1.052 3.428 2.43 7.011 4.094 10.635-1.685 3.678-3.084 7.319-4.145 10.787a44.116 44.116 0 01-2.073-.651zm4.061-27.717c-1.578-8.088-.53-14.189 2.108-15.72 2.811-1.631 9.025.695 15.574 6.525.419.372.839.762 1.261 1.166-2.441 2.627-4.852 5.618-7.156 8.877-3.951.367-7.732.957-11.209 1.747a53.396 53.396 0 01-.578-2.595zm36.234 8.97a114.44 114.44 0 00-2.554-4.212c2.68.34 5.248.791 7.659 1.343a76.997 76.997 0 01-2.688 7.251 124.592 124.592 0 00-2.417-4.382zm-14.776-14.428a76.804 76.804 0 014.943 5.982 105.129 105.129 0 00-9.928-.002 79.331 79.331 0 014.985-5.98zm-14.871 14.453a106.48 106.48 0 00-2.371 4.354 79.405 79.405 0 01-2.669-7.286 80.532 80.532 0 017.615-1.311 107.096 107.096 0 00-2.575 4.242v.001zm2.652 21.497a76.542 76.542 0 01-7.742-1.247 80.88 80.88 0 012.723-7.435 106.31 106.31 0 005.019 8.682zm12.318 10.207a80.772 80.772 0 01-5.054-6.063c1.609.063 3.248.096 4.915.096 1.712 0 3.405-.039 5.071-.113a76.491 76.491 0 01-4.932 6.08zm17.128-19.018a76.392 76.392 0 012.821 7.408 76.298 76.298 0 01-7.836 1.339 125.467 125.467 0 002.578-4.285 114.411 114.411 0 002.437-4.462zm-5.545 2.664a117.212 117.212 0 01-4.03 6.518c-2.492.179-5.067.271-7.692.271-2.614 0-5.157-.081-7.605-.241a101.989 101.989 0 01-4.106-6.528 101.062 101.062 0 01-3.584-6.785 102.719 102.719 0 013.573-6.789v.001a101.437 101.437 0 014.073-6.501c2.498-.189 5.06-.288 7.649-.288 2.601 0 5.166.1 7.663.291a108.21 108.21 0 014.047 6.478 118.774 118.774 0 013.622 6.757 108.548 108.548 0 01-3.61 6.816zm7.403-40.172c2.813 1.626 3.906 8.185 2.139 16.785-.113.549-.24 1.108-.377 1.674-3.485-.806-7.27-1.406-11.232-1.779-2.308-3.295-4.7-6.29-7.101-8.884a53.463 53.463 0 011.932-1.776c6.202-5.41 11.998-7.547 14.639-6.02zM601 385.871c4.143 0 7.501 3.367 7.501 7.52s-3.358 7.52-7.501 7.52c-4.143 0-7.501-3.367-7.501-7.52s3.358-7.52 7.501-7.52z" fill="#00D8FF"/><path d="M210 139.514L272.584 87l52.515 62.584-62.585 52.515L210 139.514z" fill="#F7DF1E"/><path d="M270.341 178.006l2.357-6.917c2.299.863 4.302 1.544 6.318-.148 1.933-1.621 2.517-3.4.05-6.34l-16.78-19.997 5.881-4.935 16.85 20.08c5.111 6.092 3.867 11.86-1.343 16.232-4.704 3.947-9.48 3.802-13.334 2.025M290.609 159.926l2.462-6.791c2.988 1.001 5.895 1.138 8.794-1.294 2.437-2.045 2.968-4.567 1.558-6.248-1.692-2.016-3.887-1.391-7.563-.311l-1.999.603c-5.759 1.754-10.477 1.848-14.496-2.941-3.701-4.412-3.16-10.593 2.091-14.999 3.739-3.137 7.521-4.091 12.308-2.309l-2.112 6.782c-2.524-.96-4.215-.758-5.895.652-1.722 1.446-1.898 3.455-.7 4.883 1.481 1.764 3.172 1.562 6.609.539l1.999-.603c6.797-2.052 11.445-2.23 15.569 2.685 4.442 5.294 2.715 11.682-2.872 16.37-5.461 4.583-11.176 4.939-15.753 2.982" fill="#000"/><path d="M922.841 250.747l1.339 54.807-21.083 8.515-22.396-3.553-11.021-53.713 53.161-6.056z" fill="#E44D26"/><path d="M902.605 309.452l17.035-6.881-1.143-46.835-21.73 2.476 5.838 51.24z" fill="#F16529"/><path d="M888.868 272.595l9.415-1.073-.758-6.655-16.689 1.902.363 1.767 3.725 18.154 14.894-1.697-.759-6.655-8.806 1.003-1.385-6.746zM892.282 289.222l-6.681.761 2.123 10.344 14.064 2.231.03-.012-.789-6.924-.029.011-7.64-1.157-1.078-5.254z" fill="#EBEBEB"/><path d="M872.946 241.493l3.382-.385.381 3.342 3.094-.353-.381-3.341 3.382-.386 1.153 10.119-3.382.385-.386-3.388-3.094.353.386 3.388-3.382.385-1.153-10.119zM887.634 243.219l-2.977.339-.383-3.355 9.339-1.064.382 3.355-2.978.34.77 6.763-3.382.385-.771-6.763zM895.095 238.97l3.527-.402 2.574 3.308 1.762-3.802 3.528-.402 1.153 10.119-3.368.384-.572-5.016-1.916 3.863-.059.007-2.738-3.333.571 5.016-3.309.377-1.153-10.119zM908.169 237.48l3.384-.385.771 6.774 4.757-.542.381 3.345-8.14.927-1.153-10.119z" fill="#000"/><path d="M899.794 284.995l8.196-.933.21 8.719-7.194 2.849.789 6.924 13.213-5.336-.028-1.136-.433-17.699-.041-1.805-15.47 1.762.758 6.655zM898.258 271.509l.002.016 16.075-1.831-.037-1.512-.081-3.408-.044-1.804-16.672 1.9.757 6.639z" fill="#fff"/></svg>
