<svg fill="none" xmlns="http://www.w3.org/2000/svg" viewBox="0 0 587 364"><path fill-rule="evenodd" clip-rule="evenodd" d="M306.039 141.846c-5.548.366-11.148.209-16.748.052-.523 0-1.884-.262-2.198.052-.366.367-.314 2.46-.366 2.984-.471 3.925-.942 7.798-1.466 11.723-.209 1.78-.419 3.559-.68 5.391-.053.523-.681 2.722-.367 3.14.524.785 4.397.995 5.444 1.204l12.194 2.355c1.152.21 4.082.262 4.606 1.204.314.576.157 2.146.157 2.774l.314 5.391c.419 7.065.89 14.078 1.308 21.144 8.636-.68 17.219-1.361 25.855-2.094 2.094-.157 4.187-.314 6.281-.523.523-.052 1.57.052 1.936-.209.89-.628 1.622-3.193 2.146-4.083 1.204-2.355 2.46-4.71 3.663-7.065 1.204-2.251 2.356-4.553 3.559-6.804.314-.576 1.047-1.57 1.047-2.198 0-.733-1.099-1.989-1.413-2.617-.994-1.78-1.936-3.611-2.931-5.391-4.867-8.897-9.682-17.795-14.55-26.692-.261-.471-.785-2.093-1.256-2.355-.942-.471-4.187.471-5.234.628-7.065.68-14.183 1.57-21.301 1.989" fill="#FED7D7"/><path fill-rule="evenodd" clip-rule="evenodd" d="M283.213 363.836c-34.657.517-69.389-.187-103.555-2.099-4.591-.242-15.303-.242-18.364-1.615-4.591-2.098 4.081-3.874 9.692-4.036 15.814-.484 34.689 1.211 50.758 1.534 16.834.323 33.668-.242 50.502-.323 9.692 0 19.129-.08 28.822-.08 5.611 0 13.773-.485 19.129-.081 15.559 1.13-4.336 5.247-11.223 5.731-2.295.242-25.761 1.292-25.761.969" fill="#FEB2B2"/><path fill-rule="evenodd" clip-rule="evenodd" d="M223.974 126.563l5.181 6.123c4.554-5.652 9.107-11.252 13.66-16.905-2.302-1.047-4.553-2.041-6.856-3.088-2.041-.889-1.779-.471-3.035 1.309-2.984 4.239-5.967 8.426-8.95 12.561M311.953 259.343v8.898c9.055-.471 18.161-.89 27.216-1.361-.419-1.256-.838-2.512-1.256-3.716-.314-.994-.733-3.925-1.518-4.553-.838-.733-4.606 0-5.757.052-6.228.262-12.457.471-18.685.68M290.338 34.8156c-10.572 6.6992-21.197 13.3984-31.769 20.0976 2.355 2.7216 4.658 5.4954 7.013 8.217.576.6804.681 1.0467 1.309.9944.732-.0523 1.989-1.2561 2.617-1.6225 7.536-4.658 15.02-9.3684 22.557-14.0264 2.251-1.4131 4.553-2.8262 6.804-4.2393-2.879-3.1403-5.705-6.2805-8.531-9.4208M536.586 139.491c-.367-3.088-1.937-6.281-3.088-9.159-1.361-3.402-2.774-6.752-4.239-10.102-.943-2.145-1.257-1.622-3.664-1.517-2.826.104-5.653.209-8.479.314 2.198 7.903 4.344 15.806 6.542 23.656.367 1.361.995 6.49 2.146 7.17.419.262 1.832-.052 2.303-.104 1.309-.053 2.669-.105 3.978-.157 1.832-.053 3.611-.157 5.443-.21-.314-3.297-.576-6.594-.942-9.891z" fill="#A0AEC0"/><path fill-rule="evenodd" clip-rule="evenodd" d="M357.278 339.315c-4.868-1.204-10.154-.053-15.021-.053-2.879 0-5.757-.157-8.636 0-.942.053-5.391-.052-5.548.524-.104.471.785 1.57 1.099 1.779.942.523 1.623-.157 2.565-.419 2.617-.68 5.652-.261 8.321-.366 2.827-.157 5.601-.314 8.427-.419 2.774-.209 6.333.367 8.793-1.046zM119.299 87.5189c-.366-.8374-.523-2.1981-1.361-2.7215-.785-.471-2.46-.157-3.349-.157-1.937-.0524-6.176.0523-7.432 1.8318-1.57 2.1458 2.983 3.716 4.501 3.6636 2.564-.1047 4.972-2.1458 7.641-2.6169zm48.517-27.0584c.209-.5234-.524-.8898-.995-1.0991-1.308-.4187-2.145.314-3.297.8374-2.878 1.4131-6.019 2.3028-9.054 3.3496-2.617.8897-5.077 2.0935-7.694 3.0879-1.832.6804-5.705.5757-6.751 2.3552-2.094 3.5066 3.402.8897 4.344.5234 2.774-.9945 5.704-1.5702 8.426-2.6693 2.617-1.0467 5.286-2.1458 7.851-3.2972 1.151-.5234 2.355-.9944 3.559-1.4655 1.046-.4187 2.407-1.5178 3.611-1.6224zm78.768 60.6595c-.681-.419-3.507-2.774-4.449-2.46-.733.261-1.57 2.931-2.041 3.663-2.303 3.559-4.815 6.961-7.275 10.416 1.099.575 2.198 1.203 3.297 1.779 2.251-5.338 6.595-9.316 10.468-13.398zm42.759 18.998c3.559 0 7.066-.419 10.573-.366 3.977.052 7.85.157 11.828-.157 3.873-.314 7.746-.314 11.671-.576 1.204-.052 8.06-.576 4.03-2.565-1.361-.68-2.983.157-4.396.472-1.675.366-3.402.471-5.129.68-1.623.209-3.35.733-5.025.68-1.727-.052-3.035-.366-4.762-.104-3.612.523-7.171.209-10.782-.105-2.407-.262-7.851-1.623-8.008 2.041zm96.249 201.395c2.303-1.832 5.862-1.047 8.583-1.623 2.984-.628.628-3.82-.523-5.495-1.204-1.78-2.983-5.286-5.024-2.669-2.041 2.669-2.303 6.542-3.036 9.787zm-71.65-79.763c-.052 1.675-.89 3.35.837 3.926 1.623.523 4.449-.262 6.176-.419 2.251-.209 4.397-.576 6.647-.785.99-.113 1.988-.148 2.983-.105.681.053 2.356.785 2.931.524.733-.367 1.099-2.408.524-3.193-.681-.837-4.711 0-6.124.105-4.71.261-9.316-.262-13.974-.053zm-.262-5.338c2.146-.89 4.711-.471 7.014-.471 2.669 0 5.338.157 8.007.314 1.204.052 4.606.942 5.6.209.524-.418.733-3.82.262-4.344-.733-.837-2.983.157-3.925.314-2.499.315-5.02.42-7.537.314-2.355 0-4.71-.104-7.065-.104-2.722 0-2.356 1.413-2.356 3.768zm-74.319-139.636c-.89-.524-3.768-2.879-4.867-2.513-.942.314-1.884 3.088-2.46 3.978-1.047 1.675-2.146 3.35-3.245 4.972-.68 1.047-2.565 2.983-2.251 4.396.158.786 1.728 2.094 2.513 1.832.785-.261 2.146-3.245 2.564-3.82 2.408-3.088 5.443-5.496 7.746-8.845zm280.895 3.454c3.088 6.071 3.507 12.927 5.182 19.417.366 1.518.994 2.983 1.308 4.553.21.838-.157 2.303.314 3.036 1.204 1.832 6.7 1.256 7.851-.366.68-.942.157-1.885-.157-2.879-.419-1.308-.209-2.46-.419-3.768-.471-2.617-2.826-5.286-3.925-7.694-1.204-2.669-1.78-5.809-3.559-8.164-1.204-1.623-4.449-4.868-6.595-4.135zM318.652 356.586c4.135-.523 10.625-1.78 10.416-7.327-.21-5.548-7.485-6.49-11.515-7.014-1.203-.157-1.308-.209-2.512.524-.833.474-1.637.998-2.407 1.57-1.518 1.099-3.193 2.617-3.507 4.606-.785 4.972 5.914 7.222 9.525 7.641zM295.048 42.7181c1.884.2093-.628-1.6225-1.099-1.8319-1.413-.6803-3.035-.5233-4.553-.314-3.664.6281-6.961 3.716-10.101 5.6525-3.35 2.0411-6.647 4.344-10.101 6.0711-1.539.6946-2.968 1.6116-4.24 2.7216-.68.628-.89 1.0467-1.832 1.0467-.523 0-1.622-1.1514-2.145-.471-1.518 1.8841 6.018 2.5122 6.803 2.3552 3.926-.6281 7.328-2.1459 10.677-4.1347 3.455-2.0412 7.066-3.716 10.52-5.7571 1.518-.8898 2.774-2.0412 4.135-3.0356.209-.157.523-.628.732-.8374.142.0504.296.052.438.0046.142-.0474.265-.1412.348-.2663.157-.4187.261-.8374.418-1.2037zm75.837 296.6489c-3.82 1.361-10.049 2.407-11.828 6.908-2.041 5.077 7.066 8.688 10.677 8.95 3.768.314 10.415-1.256 10.938-5.914.314-2.669-1.831-4.396-3.82-5.757-2.041-1.361-4.972-1.675-5.967-4.187zM126.836 57.0585c-2.722.314-4.554.5757-6.7 2.3029-1.779 1.4654-3.245 2.9309-3.977 5.1814-1.675 5.1814 2.46 9.6301 7.798 9.002.585-.1243 1.181-.1944 1.78-.2093.523.0523.942.471 1.413.5234 1.099.2093 1.308 0 2.198-.8374 1.832-1.7272 3.663-3.6637 4.658-5.9665 2.407-5.6525-1.256-9.8918-7.17-9.9965zm61.287-10.7815c.261-5.8095-8.636-6.8039-12.718-6.3328-4.658.5233-12.247 5.2337-10.52 10.9908 1.57 5.0768 10.363 4.7104 14.131 3.6637.837-.2094 2.094-.6804 2.879-.5234 1.203.2617 1.256 1.2561 2.407.314.733-.5757 1.361-2.1982 1.832-2.9832.966-1.5763 1.639-3.3138 1.989-5.1291zm124.772 239.444c-.104 1.256-.575 2.879.733 3.454.837.367 3.14-.052 3.978 0 3.506.105 7.065-.157 10.52.105 1.046.105 4.082 1.099 4.972.419.889-.681.209-2.827.157-3.769-.262-3.873.261-7.693.471-11.514.052-1.047.471-3.559-.314-4.344-.995-.942-3.141-.419-4.292-.262-3.611.367-7.327.89-10.939.89-.994 0-3.192-.68-4.082-.314-1.308.576-.994 2.565-1.099 3.821-.271 3.832-.306 7.677-.105 11.514zm-81.07-174.127c-4.711-3.506-9.631-6.804-14.341-10.206-1.675-1.203-2.931-2.9305-4.501-4.1343-.994-.7327-1.308-1.0467-2.617-.3664-1.57.8374-3.035 2.1459-4.448 3.1407-1.204.837-2.408 1.727-3.664 2.564-1.099.785-1.518.995-.68 2.303 1.413 2.303 4.291 4.449 6.228 6.333 4.71 4.71 9.263 9.63 14.549 13.712 1.728-5.234 5.496-9.525 9.474-13.346zM284.79 30c-8.217-3.2449-8.845-14.2357-11.724-21.19663-.889 4.81503 1.466 12.56103-2.512 16.32933-2.46 2.3028-3.873-.9421-5.181-2.7216-1.989-2.7215-4.135-5.2861-6.071-8.06.575 3.3496 2.25 7.1179 1.936 10.5199-.261 2.6692-1.936 6.3328-4.448 3.2972-1.821-2.0825-3.78-4.0409-5.862-5.8618-2.408-2.1981-5.129-3.6636-7.746-5.5477.981 4.9103 2.939 9.5735 5.757 13.7124 1.465 2.1982 3.035 4.2393 4.396 6.4898 1.099 1.8318 1.675 4.0824 3.141 5.6525 1.413 1.4654 3.401 2.6169 5.076 3.7159 2.355 1.5702 2.931 1.1515 5.129-.3663 4.187-2.9309 8.793-5.2338 13.032-8.1123-.785-1.0468-2.041-2.0412-1.988-3.4543.052-1.1514.889-2.1982 2.093-2.0412.942.1047 1.361 1.0468 2.355.7328.942-.3664 2.094-2.4599 2.617-3.088zm282.57 87.404c-3.82.471-7.327 1.779-11.252 1.57-1.571-.105-2.774.209-3.455-1.413-.575-1.256 0-3.193-1.727-3.507-1.308-.262-2.878.942-3.82 1.623-1.614 1.224-3.35 2.276-5.182 3.14-3.454 1.518-6.908 2.826-10.677 3.035.869 2.787 1.918 5.514 3.141 8.165 1.203 2.512 2.407 4.658 2.773 7.432.157 1.204.157 2.512 1.309 3.035 1.151.524 3.192.105 4.449.105 2.878.052 5.704.105 8.583.105 2.198 0 4.344.523 6.49.471 2.617-.052 5.6-1.204 8.217-1.727 4.867-1.047 11.671-1.675 15.596-4.972-3.611-.576-7.275-.157-10.781.575-1.623.367-5.339 2.199-6.385.367-1.309-2.198 1.256-5.234 3.035-6.281 1.989-1.151 5.025-1.047 6.438-3.14-2.669.209-5.496.314-8.113 1.099-1.988.628-4.553 2.303-5.338-.68-1.361-4.763 3.402-7.014 6.699-9.002zm-283.774 41.294c.681-6.385 1.884-12.823 1.989-19.26.053-2.774-3.088-2.303-5.286-3.088-3.193-1.152-6.333-2.512-9.473-3.821-3.14-1.308-6.281-2.512-9.421-3.82-2.826-1.152-5.6-2.879-8.426-3.873-1.57-.576-1.675 0-2.565 1.413-.889 1.413-1.831 2.774-2.774 4.082-1.988 2.826-4.187 5.548-6.385 8.217 6.647 3.978 13.556 7.694 20.412 11.305 7.013 3.768 14.602 6.019 21.929 8.845zm141.678-24.18c3.507 0 6.908-.471 10.415-.628 3.454-.105 6.804.052 10.206.157 3.297.105 6.49.733 9.787.89.785.052 1.622.052 2.408.104.785.105 1.256.367 1.988.524 1.832.314 3.612-.105 5.443-.053 6.752.367 13.451 1.728 20.203 2.094 6.961.366 13.764.89 20.673 1.727 3.664.419 7.327.68 10.991.942.733.052 2.355.524 2.774-.314.523-1.047-1.204-4.606-1.518-5.705-.357-1.453-.794-2.886-1.308-4.291-.314-.838-.995-3.455-1.623-3.978-.89-.733-2.25-.052-3.297.105-2.146.314-4.344.471-6.49.68-3.193.314-6.385 1.047-9.578 1.151-3.611.105-7.17-.052-10.781-.157-7.171-.261-14.55-.104-21.72-.889-8.27-.838-16.591-1.204-24.861-1.832-1.988-.157-3.925-.209-5.914-.314-1.413-.105-4.291-1.047-5.6-.628-1.361.471-1.099 2.041-1.256 3.297-.209 2.408-.576 4.763-.942 7.118zm-86.148 65.055c-4.941.715-9.923 1.117-14.916 1.204-2.25.053-4.448.157-6.647.419-1.831.209-2.878.262-2.983 2.303-.314 8.897-.785 17.69-1.047 26.587-.157 5.025 0 10.049 0 15.073 0 1.885-.418 3.298 1.675 3.507 2.565.262 5.234-.105 7.798-.052 2.356 0 4.711.104 7.066.157 1.518.052 4.344.785 4.815-1.047.157-.576-.105-1.623-.105-2.251.053-1.203.157-2.407.262-3.611l.471-8.321c.681-11.41 2.512-22.663 3.611-33.968zM281.964 58.3146c3.297 2.5122 7.013 4.2394 10.572 6.4899 1.675 1.0467 3.297 2.1981 4.972 3.2972 1.675 1.1515 3.664 1.8319 5.286 3.0879 3.088 2.4599 6.961 4.03 10.363 6.1759 3.454 2.1458 6.909 4.344 10.468 6.3851 1.57.8898 3.297 1.4655 4.919 2.2506 1.937.9944 3.664 2.2505 5.653 3.1925 4.187 1.9889 8.374 3.9777 12.561 6.0188 8.217 3.9777 16.591 7.6935 24.965 11.3045 1.779.786 3.663 1.1 5.547 1.571.967.139 1.915.384 2.827.732.261.157.523.157.732.367.367.418.053 1.046.314 1.36 1.309 1.78 4.92-3.244 5.758-4.448 1.308-1.884.785-2.198-1.257-2.983-2.041-.786-4.082-1.518-6.071-2.356-3.663-1.5698-7.432-3.2969-10.991-5.1811-3.663-1.9888-7.484-3.6113-11.095-5.6524-4.082-2.3029-8.112-4.6581-12.195-6.8562-6.961-3.7683-13.293-8.4787-20.045-12.561-3.716-2.2506-7.223-4.9198-10.834-7.3796-3.507-2.4076-6.856-5.1291-10.415-7.3796-1.989-1.2561-4.03-2.2505-5.862-3.716-1.361-1.0467-2.774-2.1458-4.501-1.2561-1.884.9944-3.611 2.6169-5.443 3.716-2.146 1.2561-4.187 2.5122-6.228 3.8206zM434.789 100.08c-1.046-.5758-4.972-2.0412-3.14-3.873 1.309-1.3085 4.396.4187 5.705.8374-.052-1.7795 0-3.0356-.628-4.7627-.576-1.7272-.419-3.0356.994-4.3441.628-.5757 2.983-1.099 3.297-1.8841.419-1.2038-1.674-.8374-2.407-.9944-3.821-.8898-3.559-4.8674-3.664-7.9553-.104-3.6113-.942-7.0656-3.716-9.3684-1.256-1.0468-1.727-1.0468-3.245-.3664-.539.3355-1.119.5994-1.727.7851-.889.157-1.465-.4187-2.25-.3664-1.204.0524-2.46 2.0935-3.664 2.7216-1.57.8374-3.088.5757-4.606 1.2037-1.36.5234-2.669 1.9889-3.925 2.7739-1.727 1.0468-1.308 2.0935-1.204 4.1347.105 1.7271.053 2.8262-1.674 3.5066-.524.2093-1.518.1047-1.989.4187-.681.471-.314.8374-.524 1.6748-.575 2.0411-1.727.785-3.245.5234-1.831-.3141-3.872.942-2.93 2.9309.379.7443 1.038 1.3086 1.831 1.5701.89.2617 1.989-.4711 2.774-.157 2.041.8374.419 2.7738.524 4.1346 1.256-.6804 1.674-2.6168 2.983-.471.942 1.5701.576 3.9253.314 5.6001-.523 3.9252-1.727 8.7402-4.292 11.8802-.366.471-.942 1.309-1.622 1.204-.576-.105-.628-.837-1.152-1.047-1.046-.418-2.721.21-3.088 1.204-.68 1.675-.628 4.135-.68 5.914-.052 2.041-.314 4.344.209 6.333.838 3.402 4.03 4.606 7.118 5.339 1.727.418 3.612.889 5.339.314 1.884-.628 3.192-2.356 4.553-3.769.995-1.046 2.983-2.25 3.088-3.768.052-.733-.419-1.675-.576-2.408-.149-1.162-.219-2.334-.209-3.506.052-2.146.68-4.344.471-6.438-.209-2.198-1.832-2.355-2.722-4.03-.523-.994-.628-2.564.628-2.931.733-.209 2.146.367 2.931.419 1.256.105 2.46.105 3.716.105 2.303 0 3.978-.105 6.071-1.099 2.022-.921 4.149-1.589 6.333-1.989zm-52.861 240.072c.076-1.865.392-3.712.943-5.496.471-1.517 1.57-2.826 1.727-4.396.366-3.245-.733-6.333-3.873-7.536-3.036-1.152-6.385-1.1-9.578-.89-1.832.104-3.402-.524-5.234-.419-1.839.037-3.677-.086-5.495-.366-3.507-.367-6.542-1.937-9.944-2.565-1.675-.314-2.251.419-3.298 1.57-1.12 1.281-2.404 2.407-3.82 3.35-2.198 1.465-6.124 4.187-6.333-.366-.157-3.821 3.664-6.647 6.019-9.107-2.408-.995-2.198-4.815-4.972-3.297-1.204.68-2.146 1.622-3.298 2.407-.942.681-3.088 2.512-4.344 2.355-1.727-.209-1.936-2.669-1.674-4.03.471-2.512 3.087-3.925 4.919-5.39 1.099-.89 2.774-1.571 3.716-2.617.995-1.099.785-2.355.733-3.716 0-.628.471-3.036.209-3.559-.418-.838-1.779-.628-2.721-.681-1.832-.157-3.612-.471-5.443-.628-1.413-.157-2.774.21-4.187.262-3.559.157-7.223-.052-10.782-.052-.628 0-3.402-.471-3.82.104-.367.471 0 2.722 0 3.298 0 3.611 0 7.222.104 10.833.21 7.118-.052 14.446-1.465 21.407-.262 1.256-1.099 2.669.209 3.297.995.471 3.611-.262 4.71-.314 3.507-.21 7.014 0 10.52-.262 6.071-.419 12.3-.052 18.475.105 8.217.209 16.382 1.099 24.599 1.308 3.559.105 7.223-.576 10.729-.471 1.361.052 1.78.419 1.832 1.884.052 1.57-.733 2.512.837 3.978zM209.529 88.304c-3.14-5.3384-6.124-10.7815-9.264-16.1199-1.413-2.4076-3.035-4.7104-4.606-7.0133-.881-1.1563-1.669-2.3814-2.355-3.6636-.576-1.2038-.733-2.5645-1.413-3.716-1.256 2.8263-3.978 4.3441-6.856 5.3385-2.198.785-4.396 1.8841-6.699 2.4075-6.071 1.2561-12.038 3.9776-17.952 5.9665-12.613 4.187-26.064 6.4898-38.206 11.9329 4.134 4.0823 2.878 12.8227 9.787 14.1835 2.774.5234 5.6-.314 8.269-1.0468 3.297-.8897 6.647-1.8318 9.996-2.7215 3.612-.9944 7.275-1.7272 10.887-2.6169 1.831-.4187 3.663-.7327 5.495-1.0991 1.518-.314 1.518-.628 2.355-2.0935 1.361-2.4075 3.873-4.9197 5.967-1.7271.837 1.3084.68 2.9309 1.413 4.2393.628 1.0991 2.041 1.6748 2.983 2.4075.68-1.8841 1.466-4.501 2.983-5.9664 1.623-1.5702 3.245-.3141 3.821 1.5701.68 2.2505-.314 4.9721-.785 7.2226-.209 1.0991-.628 2.3028-.366 3.4542.314 1.4655 1.622 2.9835 2.407 4.2915 7.066-5.2859 14.393-10.729 22.139-15.23zm140.107 89.759c-2.093-2.826-4.291-5.391-5.914-8.531-1.675-3.402-3.035-7.066-4.815-10.415-1.779-3.298-3.402-6.647-5.077-10.049-1.151-2.355-2.407-8.008-5.704-7.903-1.623.052-3.298.68-4.92.837-1.937.21-3.821.157-5.757.419-4.187.523-8.27 1.413-12.509 1.675-3.659.235-7.327.288-10.991.157-.994-.053-3.559-.838-4.501-.367-1.099.524-.733 2.513-.785 3.559-.366 3.873-.89 7.746-1.465 11.619-.105.681-1.099 3.926-.681 4.501.681.838 3.716.262 4.711.367 3.873.314 7.693 1.203 11.514 1.622 1.948.192 3.904.279 5.862.262 1.936 0 4.71-.524 6.489.157 1.152.419 1.832 1.413 1.466 2.669-.419 1.413-1.78 1.727-3.036 1.937-.942.209-3.559.104-4.134.942-.628.889.471 2.616.785 3.506.575 1.675.261 2.355.209 3.978-.052 1.727.942 3.192.785 4.92-.148 1.583-.166 3.176-.052 4.762.157 1.518.052 3.193.262 4.658.471 3.402 7.85 1.361 10.153 1.309 4.71-.105 9.473.68 14.131.418 1.361-.052 4.606.21 5.548-.994.994-1.204 1.151-3.925 1.779-5.391 1.78-3.82 4.292-7.17 6.647-10.624zm42.027-75.733c-.366 3.926-.523 6.961-2.878 10.311-2.513 3.559-5.443 3.245-9.421 3.611-3.375.311-6.59 1.582-9.264 3.664-3.402 2.512-7.013 4.553-10.624 6.699-6.857 4.082-15.021 5.181-22.819 6.385-1.937.314-5.548 1.204-3.245 3.507 2.459 2.512 3.873 6.176 5.495 9.264 3.821 7.17 6.752 14.811 11.096 21.667 1.779 2.774 3.873 6.124 6.542 8.06 2.564 1.832 7.693-1.57 10.31-2.721 3.402-1.466 6.961-2.617 10.101-4.449 2.95-1.684 5.99-3.204 9.107-4.553 3.02-1.418 6.112-2.676 9.264-3.769 3.768-1.203 7.798-1.622 11.619-2.617 3.925-1.046 7.065-2.198 10.258-4.815 1.465-1.203 3.297-2.407 3.873-4.344.628-1.988.157-4.448.052-6.489-.104-2.094-.418-4.24-.366-6.386.052-2.145 1.099-3.768 1.727-5.757.994-3.088 2.094-8.74-.994-10.834-.21 3.298-1.414 6.281-2.513 9.421-1.046 2.983-2.773 4.815-5.39 6.595-.995.68-2.042 1.57-3.245 1.884-1.256.314-2.983.157-4.24.157-2.878.052-6.018-.733-8.269-2.669-4.501-3.978-5.495-11.044-5.077-16.696.262-3.245.785-6.49 2.251-9.421.523-.994 1.518-2.093.942-3.245-.576-1.099-3.193-1.884-4.292-2.46zm-89.183 68.929c-5.338-.68-10.886-1.256-16.067-2.774-1.885-.523-4.135-1.256-4.187-3.507 0-.68.523-1.936.209-2.616-.314-.681-2.198-.733-3.088-.89-10.258-2.041-19.784-6.019-28.995-10.991-9.264-5.024-17.847-10.991-26.587-16.853-8.531-5.757-15.649-12.718-22.715-20.097-.994-1.047-1.989-2.041-3.035-3.036-.733-.733-1.78-2.198-2.774-2.564-1.78-.681-4.187 1.988-5.757 2.773-2.042 1.047-4.449 1.204-5.758-.994-.889-1.465-.052-1.727.053-3.036.104-1.099-.681-1.727-1.309-2.512-.523 1.204-1.203 3.455-2.983 3.193-1.57-.262-1.779-2.408-1.884-3.664-.157-1.465.314-3.297-.68-4.4485-.786-.942-2.303-1.6224-3.245-.785-1.989 1.6745-.681 6.6995-3.507 7.9555-3.978 1.779-3.559-6.281-3.664-7.9032-8.845.9944-17.166 4.8672-26.064 6.1232-3.611.524-7.798.367-10.938-1.727-2.879-1.884-5.914-6.071-7.118-9.2636-2.983 2.1982-6.071 3.873-9.892 2.9309-3.873-.9944-7.275-3.1402-8.74-7.0655-1.413-3.9253-.995-6.9086 2.564-9.1068 1.308-.8175 2.74-1.4184 4.24-1.7794 1.779-.4711 4.03-.8374 5.704-1.6225-1.727-2.5122-3.716-5.0244-4.501-8.06-.846-3.4978-.515-7.1769.942-10.4675 2.513-5.8094 9.474-9.7347 15.806-8.4263 5.496 1.1514 9.421 5.9141 10.939 11.1479.733 2.3552.105 3.8206 2.983 2.5645 3.297-1.4654 6.176-3.6113 9.578-4.8674 2.931-1.0991 6.176-2.0411 8.897-3.6636 1.413-.8374 1.361-.8897.785-2.4075-.772-1.798-1.112-3.7517-.994-5.7048.471-5.8618 5.338-10.0488 10.52-11.9853 5.914-2.1982 13.241-1.3084 17.638 3.402 2.198 2.311 3.545 5.3009 3.82 8.4786.105 1.4131-.733 3.559-.262 4.8151.419 1.1514 2.303 1.9888 3.088 3.0879 1.152 1.7271 1.728 3.7683 2.879 5.4954.994 1.5178 2.041 2.9833 3.036 4.5534 2.376 3.714 4.542 7.5581 6.489 11.5142.89 1.8318 1.727 3.6637 2.513 5.4955.575 1.2561.994 3.5589 1.988 4.6057.995.9944 2.513.6804 3.402 1.9888 1.099 1.6225.053 3.0879-.785 4.501 6.595 1.9365 10.625 7.4843 15.911 11.5663 5.338 4.135 11.148 7.694 16.852 11.253 5.967 3.663 11.776 7.17 18.266 9.839 6.019 2.513 11.881 5.443 17.9 7.956.837.366 1.517.837 2.355.261.785-.523.942-2.146 1.727-2.826 2.041-1.675 6.856-.733 9.264-.785 3.506-.052 7.065-.262 10.572-.052 1.204.052 2.355.523 3.507.366 1.746-.333 3.512-.56 5.286-.68 1.517-.053 3.088-.157 4.605-.105.733.052 1.989.366 2.617-.157.838-.628.314-2.094.89-3.036.366-.575 1.099-.732 1.413-1.203-.052.052.576-.995.366-.838 1.099-.837 4.083-1.099 5.391-.785.367.105.419.733.89.733.471 0 .523-.471.837-.576.314-.105.419-.576.89-.68.523-.105 1.151.471 1.675.523.628.052 1.204-.366 1.779-.523.657-.111 1.324-.146 1.989-.105 1.152-.157 2.408-.262 3.559-.419 1.731-.283 3.443-.668 5.129-1.151.733-.157 1.466-.366 2.251-.471.889-.052 2.041.366 2.878.157.733-.157.157-.419.733-.628.68-.209 1.413-.314 2.093-.523 1.553-.589 3.029-1.362 4.397-2.303 3.245-1.989 6.176-4.449 9.368-6.49-.733-1.047-3.454-1.256-4.605-1.623-1.571-.523-3.141-1.151-4.711-1.727-3.559-1.413-7.065-2.878-10.572-4.344-6.647-2.774-13.398-5.4429-19.731-8.8448-5.967-3.1926-12.404-5.7048-18.318-9.0021-3.036-1.6748-6.072-3.4542-9.002-5.286-2.722-1.7272-5.705-2.8786-8.531-4.4487-5.548-3.0356-10.625-6.8562-16.173-9.8395-1.308-.6804-2.774-2.1982-4.187-2.5645-1.203-.314-2.46.3663-3.559.8374-1.151.5234-2.25 1.3084-3.559 1.3608-1.465.0523-3.088-.7328-4.448-1.2038-2.512-.8897-4.711-3.2973-5.653-5.8095-.433-1.2706-.715-2.5883-.837-3.9253-.209-1.5178.314-3.3496-.052-4.815-.733-2.7739-3.978-5.3908-5.862-7.3796-2.287-2.4968-4.321-5.2142-6.071-8.1123-4.03-6.3329-6.804-13.8694-4.606-21.3537.366-1.1514.942-3.0356 1.936-3.76831 1.413-1.04675 1.989.15702 3.193.78511 1.518.785 2.931 1.2037 4.344 2.2505 1.727 1.2561 3.14 2.7739 4.71 4.187 0-3.245-.471-6.0712.21-9.26377.366-1.6748 1.151-5.12907 3.245-5.39076 2.198-.31402 3.768 3.66362 4.71 5.12907 1.779 2.66922 3.768 5.23376 5.705 7.74596.261-3.9253-.262-13.34607 4.71-14.863853 4.449-1.413107 6.752 10.572153 7.798 13.293753 1.037 2.529 2.354 4.934 3.926 7.1702 1.622 2.3029 3.349 1.1514 5.809 1.2561 2.303.1047 3.297 1.6748 3.297 3.9253-.052 2.8262-2.302 4.9197-3.873 7.0656 3.402 1.6224 7.746 3.7683 9.788 7.1179.462.7416.732 1.5872.785 2.4598.052.8898-.785 2.4599-.367 3.245.314.5757 1.309.785 1.884 1.099 1.1.6804 2.146 1.5178 3.245 2.1982 7.275 4.501 14.131 9.8918 21.145 14.6545 6.333 4.2917 13.032 8.1123 19.469 12.404 8.165 5.4431 16.696 10.1011 25.436 14.6021 1.989 1.0468 3.873 2.1982 5.81 3.3497 1.989 1.2037 4.344 1.9888 6.437 2.9308 1.466.6804 3.088 1.9365 4.658 2.3552 1.832.5234 2.617-1.4654 4.763-.942 1.884.4187 3.873.628 5.024 2.3025.995 1.466.89 3.716 2.46 4.658 1.832 1.099 2.355-.104 2.774-1.622.471-1.727 1.832-3.7161.157-4.9722-1.57-1.2037-3.82-1.3084-5.652-1.7271-.942-.2094-2.198-1.0468-3.036-1.0991-1.099-.1047-1.361.9421-2.303.9421-.523 0-.942-.4711-1.413-.6281-.105-.0523-.366.3664-.523.3141-.329-.1253-.645-.2831-.942-.4711-1.623-.6804-3.769-1.7271-3.298-3.7683.262-1.0991 2.042-2.8262.786-3.8206-1.152-.9421-2.722.9944-3.402-.9421-.471-1.4131.68-1.7795-.785-2.9309-1.047-.8374-1.989-1.0467-1.414-2.6169.367-.9944 2.303-2.5122 1.728-3.7159-.786-1.6748-3.769 0-3.507-3.0356.209-2.1982 2.983-3.7683 2.983-5.9665 0-1.5701-1.465-1.5178-1.832-2.5645-.366-.9944-.052-.9944.524-1.6748.388-.3898.723-.8299.994-1.3085.367-.7327.995-1.7271.785-2.5645-.209-.7851-1.099-1.2561-1.361-2.0935-.837-3.2449 5.967-10.5722 7.746-6.1235 1.309-1.5178 2.984-4.6057 5.286-4.3963 1.361.157.786.5234 1.257 1.3608.366.5757 1.308.8897 1.57 1.5177.523-1.6748-.053-4.815 1.465-6.0188 1.466-1.2037 2.408.8898 3.036 2.0935.418-1.0991.68-3.1926 2.041-3.6113 1.465-.4187 2.407 1.4132 3.14 2.3552.785-1.0991 2.251-4.344 3.925-3.9776 1.257.314 1.885 2.4075 2.46 3.3496 1.361-.8898 3.559-3.0879 5.339-2.8786 1.727.2094 1.57 1.8318 3.611 1.2038 1.465-.4711 2.983-1.7795 4.553-1.8842 1.675-.1046 2.513 1.0468 4.344.7851 1.937-.314 2.251-.7327 3.507.8374.628.7851.471 1.1514 1.57 1.3084.942.157 1.727-.471 2.669-.1046.348.1569.661.3811.921.6596.261.2784.464.6057.597.9628.366.7851-.052 2.1982.314 2.8262.681 1.2038 3.245.1571 4.396.9944 1.571 1.1515.105 2.8786.89 4.1347.681.9944 2.512.7327 3.245 2.0935.32.6339.465 1.342.419 2.0507-.046.7087-.281 1.3921-.681 1.9793-.314.471-1.256.8897-1.465 1.3084-.471.8898-.052.7851.209 1.7272.471 1.7794.105 2.4075-1.256 3.6113-.785.6804-.942.471-.994 1.5701-.052.8374.628 1.5701.523 2.4598-.209 1.4655-1.675 2.4076-2.093 3.873-.576 1.8842-2.094 2.8786-3.298 4.4487 1.361.8374 3.193 1.5178 3.873 3.0879.733 1.6748.576 4.1347.053 5.8618-.471 1.6748-1.57 2.7216-2.565 4.03-1.256 1.6225-1.151 2.8786-1.204 4.815-.157 4.135-1.936 7.851-5.966 9.159-1.622.523-3.036 1.256-4.658 1.78-1.784.512-3.647.69-5.495.523-1.309-.052-2.774-.366-3.245.994-.21.681-.157 3.35.157 3.926.523 1.046 1.988.889 2.878 1.779 1.623 1.623 1.152 2.983 3.873 3.036 8.845.104 17.638-.576 26.431.104 4.344.314 8.583 1.047 12.979 1.309 4.815.262 9.63.314 14.445.628 4.554.262 8.95.89 13.556.628 4.239-.209 8.321-.523 12.561-.994 1.465-.157 3.716.052 4.71-1.047.576-.628.681-1.675 1.256-2.355.566-.594 1.198-1.121 1.884-1.571 1.571-1.203 3.036-2.25 5.077-2.198 1.78.053 3.245 1.361 4.711 2.303 1.727 1.099 2.407 1.623 4.448 1.204 1.989-.419 3.873-1.204 5.81-1.832 4.118-1.273 8.084-2.993 11.828-5.129 1.884-1.047 3.193-1.727 5.286-1.099 2.198.628 2.826 1.256 2.826 3.559 0 .733-.261 1.989.576 2.407.628.314 1.936-.523 2.46-.785 2.231-1.037 4.521-1.946 6.856-2.721 2.146-.681 4.344-1.256 6.542-1.884 1.832-.524 4.24-1.256 6.019-.314 4.553 2.459-2.146 8.74-3.925 10.781 2.198-.523 6.856-.209 8.007 2.094 1.361 2.774-1.36 5.495-2.878 7.536 2.146.995 6.49.157 7.065 3.193.524 2.564-2.198 5.181-3.925 6.699-4.553 3.925-11.567 6.647-17.585 6.699-1.518 0-2.984-.261-4.501-.366-1.099-.052-2.094.314-3.193.314-1.518 0-2.878-.314-4.396-.105-1.78.262-3.612.524-5.391.733-1.675.209-3.35.366-5.024.471-1.1.105-2.774-.157-3.821.209-1.309.471-.942.942-1.047 2.251-.175 1.556-.921 2.992-2.093 4.03-4.24 3.82-11.41 2.878-13.503-2.722-.524-1.361.157-2.093 0-3.297-.21-1.256-1.361-1.204-2.46-1.256-3.455-.262-6.909-.262-10.363-.523-6.647-.471-13.503-1.414-20.202-1.257-6.961.157-13.922-.261-20.883-.628-3.245-.157-6.595-1.308-9.787-1.046-3.402.261-6.961-.471-10.415-.838-7.589-.785-16.12-1.047-23.133-4.187.575 7.642 1.465 15.387-4.711 21.04-2.617 2.407-5.862 5.129-9.264 6.123-4.396 1.309-8.583 2.408-13.032 3.35-8.269 1.832-16.538 6.123-24.022 9.996-3.507 1.832-7.642 2.565-11.462 3.559-1.832.471-3.873 1.152-5.758 1.047-1.884-.052-3.192-1.361-4.815-2.093-1.57 3.716-3.716 7.17-5.338 10.833-.785 1.832-1.413 3.769-2.355 5.548-.681 1.361-1.832 2.094-1.937 3.664-.261 3.821.419 7.746.262 11.619-.209 4.187-.837 8.426-1.256 12.613-.837 9.055-.419 18.161-1.099 27.268-.628 8.269-.21 16.486-1.152 24.808-.261 2.303-.523 4.606-.732 6.908-.105 1.518-.942 5.025-.157 6.386.366.575 1.151.68 1.727.942.891.482 1.675 1.141 2.303 1.936 1.36 1.57 1.674 3.402 1.988 5.391 1.78-.942 9.16-5.809 8.06-.471-.366 1.675-1.831 2.564-3.035 3.611-.89.785-1.675 1.623-2.617 2.303-.628.471-1.936 1.099-2.251 1.832-.523 1.413 2.251 3.402 3.559 3.402 1.832 0 4.135-2.774 5.705-3.664 4.135-2.355 3.769 2.722 2.198 4.92-1.203 1.675-.157 1.518 1.466 1.884 2.512.523 4.867.994 7.432 1.308 4.919.629 9.787-.157 14.654.943 4.868 1.151 7.746 4.187 8.479 9.159.366 2.669.733 1.308 2.931 1.936 2.041.576 3.192 2.931 4.396 4.501 2.355 3.193 6.752 11.148 3.14 14.916-1.517 1.57-5.233 1.204-7.274 1.466-1.309.157-2.879.785-4.187.471-1.257-.314-2.094-1.413-2.984-2.251 0 5.025-.052 9.369-4.03 13.032-1.595 1.435-3.468 2.529-5.502 3.213-2.035.684-4.187.944-6.326.765-4.239-.314-8.531-1.989-11.2-5.391-1.434-1.809-2.389-3.951-2.774-6.228-.174-1.056-.192-2.132-.052-3.193.104-.628.68-1.727.314-2.355-.681-1.046-3.873-.157-4.92-.052-2.826.262-5.6.628-8.374.994-2.303.314-4.658.628-6.961.21-1.989-.367-2.774-.576-2.408 1.779.733 4.763-.471 8.95-4.396 11.881-3.925 2.931-7.484 3.506-12.247 2.721-4.344-.68-8.321-4.815-9.63-8.897-1.675-5.443.052-10.415 4.135-14.131-2.46-1.256-4.083-1.989-4.972-4.868-.89-3.035-.053-6.175.366-9.211.942-6.49.576-12.823.89-19.365.157-2.878.733-5.809.733-8.688 0-1.622-.105-1.57-1.78-1.57-1.047 0-2.146.052-2.617-1.151-1.047-2.931 3.925-2.67 5.182-3.873 1.517-1.413.471-6.909.418-8.845-.157-6.281.471-12.404.576-18.685.052-2.826.209-5.809 0-8.636-.105-1.151-.733-2.041-.68-3.14.052-1.413.314-2.774.261-4.291-.628-13.137-.785-26.536.89-39.568.105-.785.628-2.564.366-3.349-.471-1.204-1.884-.785-2.878-1.204-2.774-1.204-3.454-3.14-3.611-5.966-.105-1.675-.157-3.35-.262-5.025-.052-.837-.105-1.727-.157-2.564-.053-.995.366-2.146.314-2.984 0-.261-.105-.68-.105-.837-.314-.157-.471-.366-.366-.68-.004-.287.05-.572.157-.838 0 .157-.21-.942-.21-.837.208-.368.383-.753.524-1.152-.262-.523-.785.105-.995-.837-.157-.785.367-1.727.21-2.617-.262-2.355.157-4.553.523-7.013" fill="#A0AEC0"/><path fill-rule="evenodd" clip-rule="evenodd" d="M9.71351 204c76.73079.093 153.59149 1.482 230.06249 3.056 8.453.185 16.907.648 25.36.926 1.431 0 6.243-.371 7.413.74 1.821 1.852-2.341 3.704-4.162 4.537-6.502 2.871-15.216 2.408-22.759 2.5-10.274.278-20.548.278-30.822.186-35.634-.371-71.399-2.315-107.033-3.797-21.9789-.926-43.9578-1.481-65.9366-1.944-10.7943-.185-21.7187-.371-32.51305-.648C6.33214 209.463 1 210.111 1 207.426c0-2.778 5.85236-3.241 8.71351-3.426M9.71351 265c76.73079.093 153.59149 1.482 230.06249 3.056 8.453.185 16.907.648 25.36.926 1.431 0 6.243-.371 7.413.74 1.821 1.852-2.341 3.704-4.162 4.537-6.502 2.871-15.216 2.408-22.759 2.5-10.274.278-20.548.278-30.822.186-35.634-.371-71.399-2.315-107.033-3.797-21.9789-.926-43.9578-1.481-65.9366-1.944-10.7943-.185-21.7187-.371-32.51305-.648C6.33214 270.463 1 271.111 1 268.426c0-2.778 5.85236-3.241 8.71351-3.426" fill="#A0AEC0"/><path fill-rule="evenodd" clip-rule="evenodd" d="M86.3455 226c11.8481.069 23.7165 1.111 35.5245 2.292 1.305.139 2.61.486 3.916.694.221 0 .964-.278 1.144.556.282 1.389-.361 2.778-.642 3.403-1.004 2.152-2.35 1.805-3.515 1.875-1.586.208-3.172.208-4.759.138-5.502-.277-11.025-1.736-16.527-2.847-3.3938-.694-6.7876-1.111-10.1814-1.458-1.6667-.139-3.3536-.278-5.0204-.486-.4619-.07-1.2852.416-1.2852-1.598 0-2.083.9037-2.43 1.3455-2.569z" fill="#FEB2B2"/><path fill-rule="evenodd" clip-rule="evenodd" d="M198.749 228.137c21.721 1.351 43.493 2.251 65.213 3.526 1.406.075 4.427-.525 4.948 1.951.573 2.625-1.719 5.176-3.281 5.851-1.98.9-4.48.375-6.511.45-2.709.151-5.422.076-8.126-.225-10.521-1.05-20.991-2.326-31.512-3.376-5.938-.6-11.876-1.275-17.814-2.025-1.562-.225-6.302.45-7.396-1.426-.677-1.125.052-2.925.729-3.826 1.094-1.35 2.344-1.05 3.75-.9" fill="#A0AEC0"/><path fill-rule="evenodd" clip-rule="evenodd" d="M4.74948 220.149c21.72012 1.463 43.49232 2.438 65.21232 3.819 1.4064.082 4.4274-.569 4.9483 2.113.5729 2.845-1.7189 5.608-3.2815 6.339-1.9793.976-4.4794.407-6.5108.488-2.7092.164-5.4223.082-8.1255-.244-10.5215-1.138-20.9909-2.519-31.5124-3.657-5.9378-.65-11.8757-1.382-17.81357-2.194-1.5626-.244-6.30247.487-7.396288-1.544-.677125-1.219.052084-3.17.729209-4.145 1.093819-1.463 2.343889-1.138 3.750229-.975" fill="#FEB2B2"/><path fill-rule="evenodd" clip-rule="evenodd" d="M26.2364 246.815c-7.0985.582-14.2121-.21-21.20998-2.361-.94035-.272-3.1345-.272-3.76139-1.816-.94035-2.361.83585-4.359 1.98517-4.541 3.23897-.545 7.1049 1.362 10.3961 1.726 3.4479.363 6.8958-.273 10.3438-.364 1.9851 0 3.9181-.09 5.9033-.09 1.1493 0 2.821-.545 3.9181-.091 3.1867 1.271-.8881 5.903-2.2987 6.447-.4701.273-5.2764 1.453-5.2764 1.09" fill="#A0AEC0"/><path fill-rule="evenodd" clip-rule="evenodd" d="M175.213 254.836c-34.657.517-69.389-.187-103.5546-2.099-4.5911-.242-15.3037-.242-18.3644-1.615-4.5911-2.098 4.0809-3.874 9.6923-4.036 15.8138-.484 34.6884 1.211 50.7577 1.534 16.834.323 33.668-.242 50.502-.323 9.692 0 19.129-.08 28.822-.08 5.611 0 13.773-.485 19.129-.081 15.559 1.13-4.336 5.247-11.223 5.731-2.295.242-25.761 1.292-25.761.969M32.2364 294.815c-7.0985.582-14.2121-.21-21.21-2.361-.9403-.272-3.13448-.272-3.76137-1.816-.94035-2.361.83585-4.359 1.98517-4.541 3.239-.545 7.1049 1.362 10.3961 1.726 3.4479.363 6.8958-.273 10.3438-.364 1.9851 0 3.9181-.09 5.9033-.09 1.1493 0 2.821-.545 3.9181-.091 3.1867 1.271-.8881 5.903-2.2987 6.447-.4701.273-5.2764 1.453-5.2764 1.09" fill="#FEB2B2"/><path fill-rule="evenodd" clip-rule="evenodd" d="M181.213 302.836c-34.657.517-69.389-.187-103.5546-2.099-4.5911-.242-15.3037-.242-18.3644-1.615-4.5911-2.098 4.0809-3.874 9.6923-4.036 15.8138-.484 34.6887 1.211 50.7577 1.534 16.834.323 33.668-.242 50.502-.323 9.692 0 19.129-.08 28.822-.08 5.611 0 13.773-.485 19.129-.081 15.559 1.13-4.336 5.247-11.223 5.731-2.295.242-25.761 1.292-25.761.969M166.236 235.836c-7.098.517-14.212-.187-21.21-2.099-.94-.242-3.134-.242-3.761-1.615-.94-2.098.836-3.874 1.985-4.036 3.239-.484 7.105 1.211 10.396 1.534 3.448.323 6.896-.242 10.344-.323 1.985 0 3.918-.08 5.903-.08 1.15 0 2.821-.485 3.918-.081 3.187 1.13-.888 5.247-2.298 5.731-.47.242-5.277 1.292-5.277.969M423.484 80.6109c.053-.8374-.157-2.9309.838-3.3496 1.989-.785 1.884 4.187 2.669 4.8674 2.879 2.5645 2.094-7.2749 4.815-4.0823 2.251 2.5645.419 8.7403-2.669 9.9441-2.303.8374-3.873-.7851-4.763-2.6692-.052-.0523-1.256-4.7104-.89-4.7104zM426.049 69.4102c1.413-.2617 3.193 1.1514 2.355 2.5645-.628.9944-4.815 2.6169-5.966 2.6169-1.413.0523-1.256-1.0991-.838-2.1982.359-.885.974-1.6424 1.767-2.1742.793-.5318 1.727-.8136 2.682-.809M173.207 47.0621c.418-1.7795 1.046-3.873 3.14-2.1459 1.413 1.1514 2.46 3.9777 2.564 5.7571.157 2.1459-.994 3.1926-2.878 1.9889-1.884-1.2038-2.565-3.4543-2.826-5.6001zM127.673 69.3583c-.68 4.7628-4.92.3141-4.71-2.5645.104-1.5178.942-2.7215 2.616-1.8318 1.466.7851 1.989 2.9309 2.094 4.3963zM367.379 346.799c.314-1.204.366-3.612 1.727-4.135 2.041-.785 2.878 2.565 2.983 3.925.052 1.466-.419 4.554-2.512 4.292-1.727-.157-1.832-2.826-2.198-4.082M316.611 348.683c.367-1.466.471-4.03 2.198-4.501 1.885-.471 2.513 2.146 2.513 3.611 0 1.361-.733 4.92-2.67 4.711-1.517-.157-1.727-2.67-2.041-3.821z" fill="#A0AEC0"/></svg>
