<svg fill="none" xmlns="http://www.w3.org/2000/svg" viewBox="0 0 834 651"><path fill-rule="evenodd" clip-rule="evenodd" d="M208.253 362.074c4.746 35.592 9.491 71.184 14.237 106.776l3.832 28.742c.484 3.627.027 10.781 1.87 14.028.651 1.145 2.362 1.689 3.62 2.364 4.33 2.325 8.661 4.65 12.991 6.975 36.63 19.666 73.26 39.332 109.888 58.998 35.154 18.873 70.308 37.747 105.461 56.62 3.638 1.954 9.522 7.05 13.449 5.707 3.733-1.276 7.548-4.424 10.937-6.409 6.506-3.813 13.011-7.625 19.517-11.438 39.366-23.07 78.731-46.141 118.097-69.211 16.242-9.518 32.483-19.036 48.725-28.555 4.443-2.604 8.888-5.208 13.332-7.813 2.324-1.362 2.626-1.314 3.541-3.626 3.42-8.643 5.004-18.544 7.424-27.512l8.001-29.649c1.189-4.41.631-4.979-1.309-9.236-3.838-8.426-7.676-16.851-11.514-25.276-8.519-18.7-17.037-37.4-25.557-56.1-3.445-7.562-11.743-12.883-17.717-18.445l-92.757-86.359c-2.356-2.194-4.712-4.387-7.068-6.581-.388 13.184-2.993 27.357.828 40.093 6.271 20.901 12.541 41.802 18.811 62.703 3.031 10.103 6.061 20.205 9.092 30.307.563 1.877 3.991 9.32 3.075 10.971-.508.915-4.838 1.841-5.776 2.197-4.029 1.533-8.058 3.066-12.088 4.599-11.226 4.271-22.452 8.542-33.678 12.812-10.097 3.842-20.194 7.683-30.291 11.524-3.424 1.303-7.445 3.715-11.061 3.514-3.235-.18-6.913-1.781-10.043-2.587-5.503-1.417-11.007-2.835-16.51-4.253-10.81-2.784-21.621-5.568-32.431-8.353-12.162-3.133-22.433-12.334-32.834-19.144-17.878-11.706-35.756-23.412-53.633-35.117-4.093-2.68-4.108-4.209-5.739-9.102-3.665-10.996-7.331-21.992-10.996-32.988-1.957-5.871-4.364-11.767-5.842-17.778-2.438-9.92-3.884-20.189-5.815-30.219-.582-3.026-1.165-6.053-1.747-9.079-7.487 3.038-14.974 6.077-22.462 9.116-1.085.44-6.373 1.753-6.843 2.832-.298.682 1.275 3.777 1.5 4.442 6.208 18.387 12.416 36.773 18.625 55.159 1.953 5.784 3.905 11.567 5.858 17.351-4.666-7.333-9.333-14.667-14-22-3.666 12.333-7.333 24.667-11 37-8.666-10-17.333-20-26-30l-9 30c-9.333-12.333-18.666-24.667-28-37-1.109 6.436-2.219 12.872-3.329 19.308-.335 1.943-.268 7.516-1.561 9.054-1.065 1.266-4.131.638-6.11.638z" fill="#FED7D7"/><path fill-rule="evenodd" clip-rule="evenodd" d="M799.187 439.009c-.525 16.754-.161 38.503-9.33 53.234-1.48 2.377-6.493 9.783-7.053 3.268-.549-6.396 1.025-12.73-.534-19.2-.834-3.462-3.639-11.024-8.434-7.897-2.443 1.594-3.087 5.529-4.043 8.013-1.414 3.675-2.998 7.292-4.487 10.939-5.2 12.731-10.588 27.924-22.147 36.349 1.513-10.978 5.636-22.7 2.864-33.797-.944-3.782-3.806-10.688-8.733-8.472-4.802 2.159-7.914 11.793-10.18 16.083-6.871 13.007-13.898 25.769-21.633 38.29-3.891 6.298-8.093 12.054-13.184 17.441-3.183 3.37-7.152 9.065-12.169 9.567 0-9.603 3.16-18.881 6.045-27.924 3.103-9.724 5.932-19.531 8.978-29.273 2.642-8.451 4.811-16.837 6.57-25.503.729-3.584 1.305-7.295 4.36-9.61 2.746-2.08 7.084-3.07 10.146-4.599 8.04-4.017 16.309-8.351 23.778-13.344 3.067-2.05 5.707-4.698 8.918-6.537 3.659-2.095 7.075-3.858 10.46-6.411 14.606-11.017 27.773-24.569 36.645-40.701 1.44 6.481 3.348 12.814 3.559 19.495.215 6.85-.181 13.743-.396 20.589zm-120.209 77.009c-2.336-3.945-5.895-2.329-9.031-.427-4.866 2.951-9.745 5.881-14.636 8.795-9.953 5.93-19.722 12.17-29.446 18.466-19.795 12.813-40.28 23.3-61.149 34.146-20.17 10.481-39.543 22.954-58.441 35.562-4.542 3.03-9.052 6.131-13.413 9.417-3.871 2.917-6.967 7.013-11.042 9.61-4.244 2.704-7.161.51-11.22-1.484-5.076-2.494-10.366-4.584-15.555-6.833-20.939-9.078-41.938-18.501-62.307-28.805-20.246-10.24-39.429-22.04-58.828-33.759-9.239-5.581-18.32-11.516-27.433-17.302-9.698-6.157-19.739-10.769-29.912-16.004-4.501-2.317-8.488-5.462-13.111-7.568-4.86-2.213-9.994-3.801-14.346-6.994-1.951-1.432-3.597-3.143-5.827-4.156-1.831-.831-3.909-.971-5.717-1.854-3.678-1.796-4.731-5.441-5.443-9.232-4.581-24.337-7.016-49.348-9.671-73.956-1.492-13.838-3.157-27.622-5.219-41.387-.93-6.206.94-11.014 1.922-17.051 1.146-7.051 1.599-14.25 2.367-21.349 3.624 6.714 6.758 13.76 11.369 19.887 3.399 4.515 9.205 10.918 15.464 10.767 9.728-.235 9.283-16.92 9.675-23.543 4.431 3.955 5.775 10.398 9.453 14.992 3.358 4.194 7.928 9.398 13.085 11.276 10.858 3.955 9.813-16.2 9.216-21.916-.3-2.867-1.919-7.403 1.922-6.096 3.537 1.204 6.979 6.195 9.952 8.484 5.139 3.958 10.776 7.247 16.048 11.025 6.541 4.688 13.599 8.076 20.268 12.442 4.171 2.731 8.721 3.344 13.268 5.352 6.662 2.943 12.547 7.329 18.888 10.857 12.557 6.983 26.487 13.245 40.222 17.455 4.444 1.362 10.366 5.202 13.737 1.256 2.076-2.428 3.44-6.137 5.202-8.859 2.229-3.446 4.596-6.801 7.054-10.088 8.738-11.681 18.435-22.711 29.204-32.563 12.529-11.461 26.229-21.775 40.883-30.365 6.296-3.691 32.586-20.234 38.365-8.591-4.749-.296-8.865 1.441-12.926 3.616-.991.531-6.102 4.181-4.906.964-1.485.278-2.787 2.214-3.911 3.075-1.943 1.488-4.89 3.206-7.14 4.438-2.224 1.217-4.972 1.515-6.999 2.991-.74.539-1.189 1.413-1.895 1.996l-2.024.016-.909 3.362c-1.144-3.667-2.776 1.102-4.687 2.651-1.149.931-2.968 1.89-4.321 2.491-1.011.449-1.167-.595-2.149.199-.872.705-1.428 2.258-2.366 3.142-1.151 1.082-2.624 1.923-3.907 2.847-2.458 1.77-5.058 3.16-7.548 4.838-3.35 2.258-5.107 6.141-8.359 8.502-1.541 1.118-3.934 1.249-4.768 1.965-2.091 1.798-1.402 4.522-5.302 4.642.355.568.568 1.184.641 1.849-.929-.16-1.755-.545-2.478-1.156.162 3.89-3.663 5.279-5.956 7.674-1.322 1.38-2.969 3.321-3.901 4.982-.155.278-.451 2.495-.515 2.525-.354.17-2.509-1.723-2.305-1.565-.601 3.594-4.079 6.992-5.602 10.319-.802 1.753-1.617 4.571-3.198 5.804-.43.335-1.753-.015-2.846 1.15-.802.854-1.727 2.433-2.053 3.566-.217.757.044 2.715-.268 3.169-.572.83-1.462-.004-2.358.61-1.656 1.134-1.698 2.906-4.121 3.139 1.67 4.058 11.754 5.309 15.419 6.463 10.365 3.262 21.239 6.52 30.928 11.516 2.506 1.292 4.877 2.357 5.321 5.334.619 4.142-1.492 9.65-1.895 13.834-1.091 11.299-1.314 22.931-1.086 34.278.216 10.748.564 21.597 1.065 32.332.464 9.953 2.471 19.709 3.554 29.592.297 2.713.099 14.945 4.763 14.329 3.894-.514 1.435-8.869 1.362-11.264-.163-5.301.953-10.713.906-16.061-.022-2.571 1.102-4.786 1.21-7.246.107-2.431-1.101-4.352-.739-6.872.348-2.418 7.496-16.326.631-14.697.402-1.988.754-3.993 1.285-5.952.734.66 1.326 1.431 1.772 2.311.611-4.272.407-8.536.786-12.81.17-1.937.955-4.058.687-6.01.051-.809-.052-1.603-.308-2.381-.422-.447-.945-.682-1.566-.705-.327-1.069-.411-1.363.169-2.412.249-.711.743-1.155 1.482-1.331 1.408-.167 1.569-.976.482-2.427.567-2.864.64-4.672.231-7.53-.344-2.401.921-7.05-.368-9.188-1.505-2.499-2.253-.075-2.533-3.539-.06-.733-.108-2.261.187-2.992.323-.796 1.294-.47 1.418-.753.843-1.925.899-5.715-2.084-5.386.117-1.375.234-2.75.35-4.125 2.155 2.481 1.402.381 2.624-.998 1.646-1.858 3.256-2.178 5.609-2.913 6.271-1.956 12.313-4.899 18.441-7.287 12.976-5.057 26.193-9.572 38.789-15.548 26.493-12.571 52.46-26.214 79.115-38.453-1.904-3.534-.72-3.706.672-7.024 1.858 1.29 1.467.39 2.789.311-.12-1.107.224-1.441 1.032-1.002.643.197 1.302.267 1.978.209 1.65.283 2.998 1.191 4.498 1.536.492.363 1.033.635 1.623.818.53-.121.982-.383 1.356-.787 2.428.45 3.246 2.279 3.353 4.927.018.461-1.392.933-.988 1.552.705 1.082 2.603.824 3.689.962-.238 1.124-.476 2.247-.713 3.37 4.765-2.199 3.522 4.684 4.967 6.945.403.631 1.3.127 1.767.858.608.954.425 2.305.944 3.255 1.173 2.149 2.347 1.888 3.516 4.349 6.109 12.849 14.236 24.82 20.1 37.945 2.792 6.247 5.31 12.601 8.225 18.793 2.682 5.699 4.215 10.544 2.303 16.767-4.434 14.437-9.176 29.137-14.987 43.082-.29-.461-.58-.922-.871-1.383zM369.685 623.78c-.416.708-.832 1.416-1.248 2.125-.924-5.315 1.538-2.85 1.248-2.125zm-19.558-9.952c-1.333-.399-.757-2.576-.714-3.507.843 1.051 1.67 2.122 2.372 3.276l-1.658.231zm-53.603-20.432c1.4-.785 2.407-1.349 3.994-2.239-1.613 3.144-1.613 3.144-3.994 2.239zm-84.329-276.937c-2.139 5.25 4.383 37.666-1.689 38.724-.871-2.845-.98-10.679-4.585-11.614-4.473-1.161-4.032 6.904-4.643 9.398-9.183-6.389-13.262-18.727-17.649-28.505-5.592-12.463-9.992-25.426-14.194-38.412-3.593-11.103-6.564-22.402-10.195-33.487-2.281-6.962-4.74-13.941-6.274-21.117-.333-1.559-1.644-5.512-.53-6.994 1.619-2.155 7.447.313 9.325.879 12.183 3.666 24.821 5.244 37.338 7.374 13.907 2.365 27.783 4.81 41.774 6.644 3.496.458 6.994.892 10.494 1.314 2.27.274 5.706 0 7.862 1.018 4.364 2.059 5.293 9.939 6.914 14.027 6.047 15.252 13.164 30.022 19.531 45.136 5.736 13.615 10.084 28.1 18.329 40.497-6.149-2.726-13.942-17.138-20.813-8.831-2.954 3.572-2.209 8.278-1.973 12.553.342 6.18.449 12.406.449 18.596-6.724-1.747-11.242-9.38-14.772-14.787-4.822-7.385-7.859-14.344-9.994-22.81-.925-3.666-3.377-3.757-5.556-5.951-1.4-1.41-2.104-3.31-4.112-1.259-2.524 2.578-.845 9.717-.409 12.761 1.035 7.243 4.43 18.39 1.13 25.196-4.454 9.185-16.389-13.926-17.787-17.264-.711-1.699-13.409-34.284-17.971-23.086zm-8.338-157.41l2.255.345c-.606.535-1.867 2.411-2.897 1.915.214-.753.428-1.506.642-2.26zm39.83-8.547c-.235.259-.472.517-.708.776-1.078-1.348-.696-3.313-.696-4.872 1.425.861 1.773 2.583 1.404 4.096zm3.219 14.956v4.406c-2.986-1.294-3.045-1.962 0-4.406zm3.626 5.602c-2.092-.574-2.342-1.037-2.048-4.252.867 1.801 1.438 2.988 2.048 4.252zm12.042 32.63c-.877 2.256-6.002-3.12-5.814-4.729.179-1.535.966-1.993 2.052-1.006.359.327-.174 1.508.055 1.918.827 1.484 2.494 2.698 3.707 3.817zm.057 13.592c-1.284 3.206-3.573-1.843-.218-1.981.22.645.293 1.305.218 1.981zm-2.491-5.055c-.497-.663-.98-1.335-1.449-2.019 1.728.349 3.1 2.867 4.923 1.187-.216 2.562-2.036 2.633-3.474.832zm-111.745-41.644c-2.779-3.033 15.342-5.162 17.528-5.683 15.864-3.783 30.842-9.257 45.675-15.974 7.076-3.204 14.116-6.447 21.026-9.999 2.984-1.533 7.074-2.833 9.566-5.135 1.779-1.643 1.708-2.886 4.02-3.865 1.963-.829 2.061-.046 2.96-1.546.54-.9 1.151-4.198.835-5.174-.861-2.663-2.134-.504-3.921-2.339-1.287-1.323-.975-5.085-.624-6.643.456.742.718 1.548.788 2.416 1.939-.956 1.157-4.239 3.278-4.777 2.235-.566 2.004 1.175 2.587 2.955 1.689-2.48.335-4.595-.579-7.017 4.647-.87 9.64-1.713 14.246-.167 3.331 1.117 6.182 3.864 9.699 4.395 3.444.519 4.106-1.114 6.645-2.771 2.061-1.345 3.831.239 4.892-.777-.654 3.43-6.277 2.961-5.585 7.247.312 1.929 2.676 3.662 3.752 5.163 1.351 1.884 2.428 3.967 3.348 6.09 3.579 8.258 5.109 17.841 6.611 26.672 3.706 21.798 4.175 44.026 7.661 65.894 1.661 10.416 3.326 20.838 4.189 31.356.216 2.63 1.822 8.595.508 11.125-1.111 2.136-3.583 2.142-5.753 2.659-4.246 1.009-8.233 2.38-12.306 3.899-3.651 1.361-4.712 2.196-7.056-1.239-2.267-3.324-3.388-7.286-5.01-10.93-2.066-4.643-4.562-9.123-6.958-13.602 4.707 0 7.416-2.541 7.291-7.324-.136-5.298-4.493-6.555-6.289-10.909-1.747 2.269-1.894 2.333-3.139.179-1.424-2.463-2.385-6.97-3.256-9.764.623.665 1.246 1.33 1.869 1.994 1.571-2.162-.89-5.57-1.713-7.606-1.27-3.144-1.494-6.543-2.699-9.678-.657-1.711-2.179-3.058-2.552-4.843-.249-1.195.749-2.332.512-3.545-.412-2.112-2.801-4.378-3.544-6.526-1.143-3.304-2.384-6.213-3.802-9.432-1.919-4.357-1.473-8.929-1.824-13.566-.364-4.808-1.904-9.408-2.448-14.195-.376-3.307.801-7.471-1.701-10.12-.293 4.403.969 4.335-3.168 5.127-4.71.901-8.126 4.41-12.579 5.457-.918.216-1.587-3.794-1.229 1.676-2.136-1.577-6.695.381-4.994 1.317-1.289 1.379-3.828.425-4.252 2.491-4.381-4.259-11.406 10.238-16.623 2.676-.861 5.125-4.572 8.155-9.554 8.833-2.505.34-4.049 1.175-6.272 1.926-.451.151-.617.8-1.151.975-.816.266-2.014-.537-2.602-.381-1.197.318-2.528 1.893-4.199 2.206-1.916.359-4.006.194-5.924-.028-2.398-.278-3.453-.562-5.801.228-2.112.711-4.374 2.702-6.334.534-3.079 5.327-10.42 4.025-14.045.065zM290.739 106.3c-2.33-.279-.712-2.283.367-2.885 2.932-1.634 2.149 3.187-.367 2.885zm-129.02 19.116c13.676-19.73 37.068-33.2856 57.65-44.6916 11.242-6.23 22.717-12.269 34.521-17.368 5.869-2.534 11.806-4.97 17.799-7.196 3.2-1.189 6.439-2.27 9.68-3.346.896-.297 2.526-1.209 3.464-1.12-.162-.016 2.331.662 1.841.875 1.606-.699 2.37-2.522 4.258-3.251 2.122-.82 4.825-1.159 7.098-1.233 2.011-.066 3.752.765 5.668.83 1.259.042 2.329-.556 3.562-.644.631-.044.575.9.955.955.165.024 1.845-.607 1.861-.596.612.393 1.154 1.927 1.707 2.526 1.586 1.718 3.914 2.915 6.029 3.819 2.574 1.1 8.853 2.206 5.943 6.276 2.067-.297 3.029 1.571.441 2.044-1.402.257-2.001-1.027-3.042-1.903-2.405-2.02-8.243-4.896-11.707-4.766-1.949.073-3.455 1.552-5.252 2.089-1.769.528-2.645-.291-4.197-.161-1.814.151-2.982 1.686-4.711 1.959-1.619.256-2.521-.848-3.968-.771-1.72.091-3.386 1.585-5.028 2.087-2.612.798-4.53 1.342-7.08 2.665-4.942 2.565-10.461 3.539-15.554 5.747-4.072 1.765-8.689 2.694-12.457 4.646-4.19 2.169-8.399 4.33-12.502 6.687-2.964 1.703-8.99 2.289-12.258 1.856-.047 6.018-3.009 1.799-5.994 4.435.706.623 1.508 1.081 2.403 1.374-3.235 1.292-6.225 2.9-9.359 4.385-3.239 1.536-6.695 1.874-8.823 4.779-1.96 2.6766-1.296 1.296-4.221 2.3496-1.342.484-2.509 1.96-3.476 2.951-1.662 1.704-2.03 4.284-2.979.782-.277.427-1.367 3.146-1.579 3.215-1.189-1.262-1.36.234-2.025.769.35 1.163-.15 1.925-1.5 2.286a82.489 82.489 0 01-2.074 1.493c-2.536 1.759-5.764 3.268-7.55 5.889-1.317-.777-1.805-2.118-1.003-3.487-2.517 2.32-5.52 4.703-6.201 8.274-.313-.302-.678-.52-1.092-.654-1.022.69.309 2.746.957 3.209 2.826-1.098-.706-.7 1.193-.523.541.05 1.097.455 1.694.462 1.751.023 3.396-.061 5.132-.328 3.828-.59 7.59-1.689 11.296-2.791 4.036-1.2 8.073-2.398 12.02-3.87 3.25-1.212 6.446-2.563 9.641-3.909 1.276-.538 2.551-1.083 3.829-1.617 2.427-1.014 3.707-2.68 3.368.174 1.933-.321 3.608-3.053 5.092-4.168 2.088-1.567 4.436-2.736 6.91-3.536 1.002-.324 1.738-.736 2.774-.739.508-.001.812 1.431 1.132 1.353 2.22-.538 1.208-1.768 2.206-3.54 2.183-3.8726 8.063-6.0146 11.674-8.2146 2.292-1.397 3.919-3.276 6.035-4.823.99-.723 1.709-1.043 2.746-1.349.794-.235 1.768 1.589 2.283-.244-1.847-.755-3.37-1.686-5.147-2.237-1.257-.391.251-1.728-1.741-.932-.8.32-1.075 1.868-1.369 2.516-2.225-1.987-8.481.072-11.121.904-.182.057-.997-.373-1.381-.347-1.524.102-2.585 2.153-3.588 3.037-2.667 2.349-5.56 3.331-8.844 4.672.874-4.775 7.297-6.731 11.046-8.56 5.48-2.674 10.582-6.087 16.582-7.525 3.996-.959 9.291-1.73 11.017 2.916 1.033 2.785 1.163 9.704-2.332 10.989-.369-1.3.813-2.411 1.169-3.539-3.479 1.328-4.052 5.507-6.694 7.688-1.485 1.225-2.016 1.618-2.734 2.8016-.713 1.176-1.055 2.273-2.726 3.524-2.731-5.8006-2.269 2.145-3.654 3.142.557-.401-2.257.77-1.921.646-.13.048-1.356-1.938-2.151-1.896-1.447.076-1.169 1.669-1.866 2.471-2.363 2.714-5.416 4.494-9.219 4.067-.089 1.931.507 4.238-2.13 4.414l-.346-4.281c-1.435 1.452-3.324 2.831-4.492 4.512-1.329 1.913-1.187 3.091-3.392 4.366-2.304 1.333-7.206 3.959-9.948 4.186.678-.962.558-1.831-.358-2.605-1.379 1.422-3.415 1.562-4.883 2.846 5.096 2.129-3.915 2.019-5.058 2.26-.765.162-1.433.859-2.208 1.016-1.029.209-1.162-.873-2.048-.53-1.296.502-.77 1.919-2.126 2.631-.974.512-2.626.505-3.725.991-2.619 1.16-8.198 3.729-9.968.613-.897 5.346-10.058 2.092-13.449 1.732-4.644-.493-12.733-2.673-8.425-8.89zm19.506-54.6976c.657-.561 1.315-.52 1.973.124-.916-4.838 6.169-7.187 9.26-9.244 4.1-2.728 8.926-8.021 14.291-7.602-.915.678-1.828 1.356-2.742 2.034 1.305.169 2.609.338 3.912.507-.735 1.08-1.471 2.159-2.208 3.238-1.204-6.636-7.486 1.742-9.304 2.963-1.831 1.229-3.657 2.145-5.284 3.644-1.612 1.485-3.067 4.159-5.732 2.823-.243 3.79-3.29 2.762-5.397 4.861-.088-1.317.666-2.248 1.231-3.348zm27.834-18.919c6.485-2.429 12.131-6.92 18.242-10.128 5.837-3.065 11.792-5.817 17.726-8.676 3.01-1.451 8.524-5.203 11.965-3.291 4.643 2.582-1.749 3.415-3.409 4.309-.614-3.976-2.765-.374-1.48 1.838-3.543-1.53-11.27 4.456-14.65 6.107-.765.374-.422.59-1.292 1.03-.214.108-2.432.613-3.067.826-3.182 1.065-5.279.219-6.65 4.06-.287-.904-.574-1.809-.861-2.714-1.992 4.473-8.047 6.431-11.919 9.076-.998.682-3.848 3.327-5.114 2.78-1.762-.762-1.055-4.632.509-5.217zm116.987 13.486c2.738.181.098 1.458.85 2.302-.085-.095 1.649 1.384 1.422.978.306.546 1.041.526 1.417 1.636 1.295 3.817-4.36 7.761-6.267 9.927-3.708 4.213-5.851 9.548-9.715 13.626-1.745 1.842-3.481 3.114-5.9 3.801-1.693.481-3.484-.034-5.04 1.594-1.253 1.3106-.969 2.0556-2.354 2.7526-2.44 1.229-3.515.151-5.889 2.807-2.043-5.5536 3.827-5.5446 6.89-8.6486 4.228-4.285 8.861-8.608 12.826-13.192 3.522-4.073 4.933-7.644 6.605-12.592.527-1.56 1.101-4.905 2.554-5.884 2.263-1.524.905.78 2.601.893zM339.51 209.565c7.181-8.032 16.089-15.244 25.745-20.082 3.451-1.73 8.364-4 11.941-1.337 3.508 2.61 2.753 7.817 1.339 11.359-1.355-.532-.076-5.51-.779-6.74-1.534-2.684-4.844-1.259-7.096-.359-2.638 1.054-4.992 2.218-7.081 4.131-.848.775-2.471 1.47-3.014 2.003-.816-.339-1.297-.092-1.441.74.168.51.148 1.012-.061 1.506-.119.157-1.18-.487-1.331-.358-.688.589-1.332 1.282-2.009 1.829-1.359 1.099-2.515 1.619-3.766 3.151-2.416 2.961-5.612 4.696-8.039 7.517-.548.638-1.205 2.273-1.328 2.416-1.227 1.432-3.046 2.565-4.43 4.081-2.393 2.619-4.948 4.377-7.709 6.623-1.189.966-2.576 2.007-3.367 3.351-.36.613-.563 3.973-.576 3.987-2.708 2.968-2.181-2.998-1.977-3.746 2.199-8.049 9.634-14.092 14.979-20.072zm-14.781 54.427c.337 1.264.614 2.309.956 3.592-2.147-1.761-2.147-1.761-.956-3.592zm-2.319 4.14c-.789.795-1.582 1.585-2.381 2.37-1.757-1.857 2.703-2.688 2.381-2.37zm-1.115-31.962c-.84 3.398-3.915 7.517-6.029 10.199.233-.296-1.804.299-2.036.434-.753.436 1.05 3.262-1.559 1.999-.926.524.897 2.658-.361 3.613-3.636-8.285 6.292-15.463 10.136-21.613 1.88 1.726.321 3.463-.151 5.368zm-23.617 44.794c2.651.682 4.03.253 5.82-2.351 1.076-1.564 1.469-4.334 3.93-1.994l.434-3.009c3.513 1.441 3.218 6.649 4.753 9.535.747-3.265 2.516-12.386 7.933-10.923 6.081 1.643-4.04 12.101-4.98 14.663-2.067-3.208-1.254-.224-2.831.228-1.353.389-3.467-.607-5.111-.517-5.002.272-9.396 2.522-13.965 4.427-1.157-3.119-2.313-6.238-3.47-9.357 2.69.207 8.252-6.953 9.042-1.749-1.995-.347-2.557-.259-3.529 1.557.621-.315 1.279-.485 1.974-.51zm11.228 40.711c-.008-.025 5.174.295 5.636.126 3.546-1.295 2.235-5.317 2.96-8.16 1.462 1.344.687 3.797 1.138 5.536.529 2.044 2.061 3.786 2.203 5.972.323 4.939-3.73 3.843-6.802 5.441-2.625 1.366-2.916 3.084-5.133-.597-.6-.996-1.89-3.591-1.758-4.865.13-1.262 2.129-2.311 1.756-3.453zm4.176 21.372l-1.433-1.605c4.27 1.307 1.752-.658 2.734-3.345 3.277 2.182 5.95 4.425 8.543.056l4.48 18.07c-3.009.708-6.891-3.941-8.955-5.538-1.192-.923-7.807-4.478-3.835-5.514-.512-.708-1.023-1.416-1.534-2.124zm29.244-56.742c-2.487 2.365-4.992 3.689-7.7 5.548-2.375 1.632-1.557 3.505-3.616 5.325-1.367 1.21-4.572 2.442-6.261 3.365-3.009 1.644-5.704 1.957-8.799.117.842 6.781-3.802 7.312-9.583 8.655-2.757.641-4.389 1.62-6.376-.905-1.361-1.728-1.894-4.857-.201-6.438 2.689-2.512 9.853-1.645 13.303-3.225 2.618-1.198 5.285-7.949 8.515-5.492-1.667-2.655.274-3.37 1.723-5.263 1.587-2.075 2.562-4.501 4.204-6.559 3.12-3.912 7.91-7.847 12.341-10.206 3.899-2.075 5.946-.606 6.53 3.752.294 2.191.283 5.455-.944 7.399-.391.62-1.682.627-2.073 1.209-.681 1.017-.056 1.76-1.063 2.718zm45.753-52.593c3.111 2.408 2.808 7.468 3.298 10.914.691 4.857.19 9.557.116 14.504-.078 5.183-2.621 8.559-3.818 13.417-1.33 5.404-3.047 8.266-6.031 12.801 3.236.509-1.58 10.173-2.374 11.424-.862 1.358-7.813 7.616-4.833 7.616-1.644 2.168-3.434 4.393-5.072 6.501-.645.83-1.776 1.156-2.284 1.742-1.035 1.191-1.098 2.253-1.839 3.643-1.125 2.109-1.495 1.546-2.974 3.076-1.021 1.057-1.691 2.452-2.694 3.465-3.232 3.263-3.644.59-5.451-1.923-.277.673-.769 1.095-1.476 1.266-.566-2.844 3.33-5.717 4.968-7.445 2.683-2.832 5.135-5.952 7.507-9.049 5.08-6.636 9.645-13.686 13.247-21.238 3.832-8.037 6.893-16.735 8.483-25.503 1.212-6.683 2.364-18.147-6.566-19.847-6.495-1.236-13.655 2.71-19.009 5.905-3.263 1.946-6.544 3.881-9.652 6.07-3.374 2.374-6.29 5.734-9.952 7.639 2.003-1.042-4.606 2.094-3.594 1.212-.474.412-.065 1.671-.378 2.239-.408.739-1.826 1.469-2.462 1.947-1.68 1.262-4.364 2.553-5.128 4.637-10.656-7.602 10.535-21.098 15.967-24.535 10.775-6.817 29.524-20.137 42.001-10.478zm28.744-73.933c-.102-5.474 4.356-12.947 7.367-17.411 1.473-2.185 3.826-2.098 4.689-4.675.498-1.484-.155-3.04-.007-4.53.2-2.015 1.074-3.631 2.082-5.363 9.113-15.657 20.185-29.5146 31.978-43.1746 5.815-6.734 11.328-13.727 17.599-20.053 2.62-2.642 9.661-12.14 13.689-11.19 2.133.503 3.374 3.758 4.337 5.419 1.592 2.747 3.343 5.32 5.278 7.846 5.107 6.669 10.998 12.523 17.955 17.25 4.344 2.954 8.733 5.825 12.981 8.92 3.497 2.547 8.784 5.459 11.281 9.0346 2.498 3.577-1.17 6.606-3.175 9.576-3.116 4.619-5.982 9.405-9.111 14.019-1.243-.894-.922-2.71-1.774-3.855-.756-1.015-1.825-1.428-2.869-2.055-2.001-1.199-3.965-2.665-5.772-.656-3.163 3.516 1.186 11.827 5.874 10.915.552 3.47-8.809 9.185-11.155 11.095-7.2 5.858-14.627 10.951-24.138 11.481-3.849.214-7.854-.078-11.511-1.366-1.752-.617-3.689-1.464-5.032-2.809-1.608-1.61-2.018-4.006-3.578-5.6-1.353-1.383-3.211-1.596-4.563-2.984-1.354-1.389-2.023-3.583-2.572-5.382-1.074-3.515-1.277-7.222-2.309-10.745-.621-2.119-1.131-4.952-3.156-2.916-2.941 2.958-1.464 12.259-.711 15.803 1.077 5.056 3.602 9.132 6.247 13.482 2.868 4.719 3.927 9.096 4.441 14.556.962 10.221 3.895 20.029 8.459 29.225 1.921 3.872 4.222 7.513 6.296 11.296.969 1.765 3.14 7.787 5.775 7.755 4.21-.052-1.787-12.329-2.619-14.39-4.612-11.415-9.017-23.413-10.005-35.773 6.611 1.703 13.817 3.319 20.663 2.24-4.419 9.882.197 19.721-.368 29.893-.282 5.101-.486 9.807-.381 14.893.093 4.46-1.921 8.918-3.662 12.951-3.458 8.009-7.811 17.889-14.233 24.024-5.369 5.129-12.551 5.53-19.566 4.349-15.958-2.688-26.443-14.955-33.14-28.887-4.303-8.95-7.592-18.504-9.634-28.224-2.364-11.249-1.74-22.574-1.95-33.984zm20.724-75.8106c-14.892-10.775 6.748-23.011 17.763-21.345 2.584.39 7.338 1.458 7.096 4.83-.198 2.756-4.795 5.828-6.56 7.529-5.033 4.854-10.155 14.877-18.299 8.986zM545.881 323.385c-.511-.458-4.679.666-3.028-1.8 1.372-2.049 5.176.519 6.558 1.046-1.139.787-2.13 2.006-3.53.754zm-62.009 130.319c-1.28.158-2.618-3.294 1.996-.715-.665.238-1.331.477-1.996.715zm-.132 56.261c.159 1.547.632 2.567-.467 3.692-.929-1.145-1.049-2.76.467-3.692zm1.873 23.246c-.136.842-.272 1.684-.406 2.525-1.066-.539-2.13-1.078-3.196-1.618 1.2-.302 2.402-.604 3.602-.907zm1.304-19.602c1.588.594.849-1.305 2.002-1.572.413 1.977-.096 3.67-1.231 5.301-.108-.386-.69-3.7-.771-3.729zm40.584-140.275c-2.228-.284-2.565 2.07-4.226 2.983-1.072.59-4.336.147-4.945 1.276.804.232 1.609.465 2.413.697-1.841.992-3.682 1.985-5.523 2.977 4.428 0 9.042-2.115 13.44-1.494 1.859.263 3.222.891 4.388 2.403.708.918 1.33 2.395 1.444 3.519.123 1.216-.825 2.056-.657 2.636 1.982.054 1.748 3.305 1.303 4.63-.965 2.873-4.798 7.372-8.233 5.55 1.437 2.039 1.071 3.203-1.054 4.386.193-.674.335-1.853-.751-1.736-.279 1.13-.172 2.922-1.095 3.774-1.033.953-1.955-.161-2.943.459-1.171.736-.819 1.891-1.74 2.689-1.218 1.054-1.392.305-2.848.51-2.205.312-.798-1.058-2.564.728-.611.616-.508 2.219-1.498 3.121-1.902 1.731-6.977 3.535-8.799 1.315-4.381 6.943-17.512 8.609-23.624 3.128-9.748-8.741 8.428-26.518 14.429-32.152 6.023-5.654 12.713-10.538 19.482-15.252 3.846-2.678 7.793-5.109 11.823-7.495 2.486-1.473 5.608-4.162 8.663-3.904 2.74.232 5.081 2.358 7.966 2.779 2.086.304 6.139.806 3.507 3.636-1.231 1.322-6.065 3.46-7.711 3.782-.967.189-1.986-.173-2.944.023-1.622.333-2.736 1.702-4.501 1.528.559 2.619-.461 3.852-3.202 3.504zm28.849-97.23c.001 2.049-3.739 1.538-4.52.842-1.286-1.145-1.331-4.569-1.808-6.126 2.174.547 6.326 2.549 6.328 5.284zm-30.128-67.598c7.856-6.457 16.116-12.377 24.848-17.591 3.127-1.867 7.542-5.633 11.426-5.163 1.629.198 4.997 2.069 3.77 4.132-.229.386-2.042.541-2.602.821-.635.317-1.133 1.191-1.722 1.623-4.08 2.993-8.982 4.832-13.075 7.897-3.364 2.517-6.501 5.333-10.122 7.493-3.474 2.071-7.104 3.382-10.402 5.676.065-.046-4.29 1.52-3.436 1.805-3.823-1.279.215-5.788 1.315-6.693zm52.378-2.405c4.667-1.86 9.233-4.117 14.119-5.367 2.438-.624 4.941-1.093 7.465-.812.429-.751 1-.917 1.714-.498.557.856 1.291 1.513 2.203 1.972 1.392 1.07 6.517 2.469 5.493 4.832-.677 1.563-5.816 1.693-7.226 2.044-4.251 1.059-8.215 3.441-12.594 4.026-.411.055-1.753-.443-1.768-.44-1.709.373-3.131 2.146-4.599 2.996-3.16 1.829-7.7 2.136-9.969 5.293 7.348 4.981 13.723.041 20.183-3.72 3.87-2.252 8.024-3.877 12.253-5.321 2.21-.754 4.44-1.538 6.68-2.2.927-.338 1.88-.581 2.858-.73.91-.181 1.561.15 1.954.994 2.708-.09 2.94-1.789 4.57 1.38 2.298 4.468-1.218 4.241-4.522 4.79-4.582.76-9.242 2.472-13.757 3.607-1.041.262-10.172 2.379-10.183 2.454-.414 2.882 25.792.213 28.042-.219 3.97-.764 8.228-2.933 12.338-2.41 3.156.401 10.345 5.031 5.311 8.107-.991-4.744-4.393-.826-6.169.775-2.366 2.131-5.756 1.926-9.001 2.761-4.438 1.14-15.799 5.418-18.951-.036.997 4.78-17.113 2.351-19.603 2.193-2.427-.155-5.56.361-7.906-.331-1.53-.451-2.381-1.446-3.821-1.67-.353.38-.776.639-1.268.776a8.0517 8.0517 0 01-1.977-1.408c-4.85-2.229-12.354-3.461-9.659-10.562 2.542-6.697 11.625-10.818 17.79-13.276zm45.459 4.139c.121-.417.242-.834.362-1.252.015 1.279 3.065 1.825 2.713 3.482-.781 3.669-4.301-1.844-4.603-2.445.51.072 1.018.143 1.528.215zm18.622 6.096c.353 1.503 4.409 4.703 3.404 5.441-1.599-2.174-6.019-1.187-3.404-5.441zm-68.417 137.14c1.485-2.945 5.974 2.07 5.5-2.958 2.441.221.917 2.078 3.842 1.262 1.096-.306 1.837-1.521 3.173-1.801.356-.075 1.895.047 2.426.031 1.759-.054 8.653-.25 3.908-2.557 2.656-1.756 2.983-.865 5.38.744-.615-3.326 2.912-1.438 4.554-1.023-1.171-1.897 1.735-3.915 2.678-5.197-.338 1.975-.16 4.186 2.698 2.923.712-.314.552-1.71 1.117-1.938 1.034-.417 1.612.342 1.983.299.365-.041 1.134.164 1.901-.125.997-.375.516-1.713 1.78-1.912.823-.129 1.424 1.081 2.429 1.091.516.005 1.377-.519 1.769-.491.069.005.56-1.179 1.163-1.208.882-.043 1.241 2.32 1.563 2.779 1.544 2.19 3.597 3.618 5.965 4.786-4.284 3.928-12.926 3.512-18.313 4.836-2.918.718-5.407 1.753-8.077 3.087-.644.419-1.199.933-1.663 1.542-.378-.251-.757-.502-1.135-.753-1.463.09-2.847-.634-4.494-.356-5.087.858-9.07 4.669-14.24 5.518-2.323.382-4.232.915-5.745-1.099-1.328-1.766-1.108-5.602-.162-7.48zm-6.975-23.473c1.153.975-.234 4.149 1.998 3.804 1.584-.245 1.268-2.702 2.512-3.223 1.634-.683 2.62.938 4.156.788 2.863-.282 2.699-2.782.28-3.88 2.515-.664 3.321 2.31 5.548 2.283 2.925-.035 2.227-3.486 4.716-4.058 1.078-.248.718 1.335 1.417 1.532 1.4.393 2.375-.282 3.613-.876 1.108-.531 1.897-1.557 3.108-1.905.551-.159 1.951.132 2.355-.163.815-.594 1.545-2.908 2.347-3.214-.164.062 2.466 1.38 2.843 1.504-.231.977-.766 1.093-1.606.349 0 2.205 6.128 2.892 4.871.167 3.314 1.372.846 2.078.515 3.993-.132.77-.58.749-.447 1.563.061.375 1.798.052 1.777.563-.147 3.291-10.636 4.303-12.623 4.593-4.114.601-8.007 1.612-11.973 2.857-2.953.927-8.043 3.582-11.185 3.417-4.519-.237-5.108-6.133-4.222-10.094zm-10.097-33.582c-1.102-3.661 2.433-11.223 7.037-10.278 1.132.232 1.411 1.17 2.289 1.586 1.226.582 3.22.276 4.283.877 2.383 1.349 1.182 4.786 3.57 6.028-3.77.914-15.428 7.606-17.179 1.787zm4.363 14.224c1.624-.873 4.257-.985 5.364-2.664.552.382 1.595 2.701 2.584 2.346.462-.165.939-1.422.906-1.421.881-.025 1.056-1.218 2.403-1.084 1.236.124 2.62 1.61 3.721 2.164-.189-3.684.755-4.036 3.742-6.008.655-.432 1.202-2.054 1.806-2.71-.578 3.866.879 3.887 3.966 4.468 3.87.728 6.281 2.806 7.832 6.545-3.298-.643-7.552.131-8.852 3.676-2.632-4.809-12.198 1.827-15.293 3.186-2.297 1.009-4.969 2.365-6.895.014-1.356-1.656-.579-3.648-.55-5.119.008-.462.485-.489.441-1.177-.056-.878-1.199-1.229-1.175-2.216zm35.21 75.621c-.871.33-5.354.515-5.383-.97-.024-1.312 7.912.01 5.383.97zm-7.282-4.804c-3.392 2.091-7.187-5.277-8.434-7.399 3.558.455 5.295-2.521 7.391-4.783 1.994 4.369 5.022 2.06 8.207.601 3.756-1.721 7.872-1.734 11.72-3.115 1.201-.431 2.308-1.072 3.48-1.565.944-.353 1.885-.715 2.822-1.086.665-.6.902-1.339.708-2.215-.315-.736-.1-1.201.645-1.393.886.264 1.79.418 2.714.459 1.483-.294 3.614-1.693 1.824-3.201 1.918-1.742 3.839-.01 5.686.753-.439-1.251-.876-2.502-1.315-3.753.916.389 3.636 4.189 3.913 4.168 1.758-.132 1.575-2.491 2.585-3.443.583.719.75 6.08 3.042 4.274.98-.772-1.13-3.402-1.65-4.001 2.622.592 4.911 3.722 5.62 6.152-1.245.18-2.396-.07-3.453-.752-.676 3.384 5.588 2.013 6.602 3.781 1.986 3.461-10.932 5.865-12.615 6.186-3.368.642-7.343.881-10.43 2.374-2.958 1.429-3.658 1.838-7.114 2.106-3.945.306-7.794 1.606-11.61 2.618-3.313.878-7.401 1.424-10.338 3.234zm72.1-123.891c3.115-1.121 13.607-6.938 16.278-4.351-.282-.274 1.926 4.288 1.903 4.001.19 2.373.132 3.328-2.789 4.465-2.092.814-3.914-.916-5.796-.229-2.067.755-.621 2.091-1.685 3.024-1.166 1.023-3.414 1.465-4.865 1.913-3.552 1.097-7.132 2.014-10.667 3.196-7.193 2.405-14.81 4.643-22.202 6.344-5.524 1.271-14.9 4.43-19.99.699-.497 2.121-1.711 1.831-3.397 2.14-1.323.242-3.715.897-4.891.931-1.957.057-7.398-.456-6.649-3.201-.206.756 4.232-1.832 3.464-1.993 1.885.397 1.274-.552 2.818-1.08 2.017-.689 4.125-.652 6.184-1.382 5.191-1.84 9.545-4.228 15.024-5.381 12.515-2.633 25.186-4.751 37.26-9.096zM159.886 541.163c-1.014.027-1.803-2.854 1.282-.797-.427.266-.854.531-1.282.797zm-24.37-3.728c-1.379.353-1.929-.417-1.648-2.308 1.923-.76 2.472.009 1.648 2.308zm-18.814-3.859c-.353-1.686.897-2.066 2.03-2.823-.114 2.234-.114 2.234-2.03 2.823zm-47.3377-13.874c-1.907-.419-4.448-2.284-4.885.847-.319-.725-1.947-4.135-1.248-4.924.365-.413 1.747 1.497 1.6 1.308 1.669-3.376 4.546.698 6.154 1.903-.54.289-1.081.578-1.621.866zM565.18 146.606c.658-1.392 1.435-1.834 2.327-1.325-1.402 3.256-6.15 5.021-2.327 1.325zm32.99-30.564c1.176 2.205-.593 3.137-1.856 4.97.739-1.977 1.251-3.347 1.856-4.97zm143.379 215.244c4.242-.001 13.278-2.24 15.836 2.609 1.693-3.295 3.617 2.884 5.086 3.875.165.112 1.223-.697 1.715-.399.742.449 1.382 1.672 1.807 2.399 1.281 2.192 1.832 4.798 2.542 7.21-7.409 0-15.006-1.725-22.409-2.352-4.859-.412-9.623-.424-14.489-.162-.967.052-2.887-.267-3.714-.085-.84.185-2.363 1.896-3.289 1.621 1.439 2.701 19.868 9.24 21.274 6.249-1.666-1.008-5.366-1.782-5.363-4.218.003-2.729 3.471-2.724 5.309-2.644 4.02.176 10.752 1.514 12.4 5.694.706 1.792.923 6.304.147 8.034-.501 1.117-1.349 2.46-2.693 2.687-.551.093-1.345-.64-1.429-.622-2.758.585-7.863 2.8-10.871-.323-2.169 2.807-12.617-.259-15.816-1.318-5.594-1.852-13.297-4.395-16.695-9.615-4.142-6.362 4.279-11.739 9.114-14.325 6.609-3.534 14.16-4.312 21.538-4.315zm28.231 14.71c1.301.367 2.601.735 3.901 1.102-.348 2.28-5.478.476-3.901-1.102zm39.309 82.877c.4-9.135-2.241-17.18-3.766-26.015-.378-2.19.008-6.019-1.656-7.82-1.589-1.722-5.136-.322-5.277-3.366-1.565 1.833-1.407 2.216-3.336.108.352.904.403 1.823.153 2.759-1.197-.686-5.535-2.964-5.17.151-3.567-.789-2.534-3.02-4.569-4.723-.289-.242-1.45.617-1.903.251-.818-.663-1.223-1.265-1.913-2.119-.877 1.06-2.071 1.826-3.143 2.664-.623-1.357-1.836-2.353-3.294-2.683 1.363 2.852 4.733 6.546.111 8.169-2.759.968-7.278-.219-10.2.007-10.83.84-22.692-1.521-33.163-4.101-10.757-2.65-21.635-6.391-31.309-11.859-2.062-1.166-3.361-2.546-5.137-3.992-1.726-1.406-2.981-1.628-5.056-2.527-3.735-1.618-7.151-4.213-9.992-7.105-6.109-6.219-11.785-14.352-10.084-23.457 1.696-9.075 7.934-16.167 14.609-22.143 7.883-7.058 16.784-12.951 26.23-17.702 4.224-2.123 15.028-10.101 19.201-5.433 2.667 2.982 1.167 6.787-2.477 7.45-.899.164-1.838-.439-2.747-.026-1.31.596-.849 1.3-1.39 1.797-.939.863-1.937 2.209-3.34 2.957-4.897 2.611-9.631 4.68-14.312 7.86-2.158 1.465-4.235 2.095-6.137 3.374-1.892 1.271-2.322 3.375-4.866 2.077.906 3.7-4.534 7.662-6.666 9.929-3.303 3.51-7.263 7.99-5.722 13.183 3.017 10.166 16.648 17.887 25.371 22.356 10.886 5.576 22.891 10.015 35.012 11.852 6.026.913 12.254 1.477 18.325 2.056 4.727.451 11.981-1.2 15.382 3.057.105-4.964 15.609-4.526 18.909-5.161-6.616-22.615-19.607-42.722-33.495-61.508-6.816-9.222-13.51-18.706-21.279-27.16-8.506-9.255-18.224-17.526-27.457-26.042-18.11-16.703-38.592-31.61-59.434-44.742-20.794-13.101-42.329-25.995-65.11-35.336-26.019-10.668-53.412-17.685-80.835-23.661 3.72-4.74 9.771-7.052 14.534-10.52 1.668-1.214 3.922-4.128 6.088-4.526 2.346-.432 4.193 2.092 5.863 3.359 4.793 3.636 8.108 2.092 13.598 1.873 3.285-.131 11.064 1.698 12.449-2.745 1.842 2.452-.829 4.418-2.196 6.216.995 1.388 1.797-.052 2.78-.269.303-.251.605-.503.908-.754.488-.706.928-.71 1.319-.014.586.882 1.176.687 1.77-.586.163-.102.325-.205.488-.307.71-.378 1.395-.976 2.055-1.447 4.989-3.565 9.435-6.602 14.942-9.228 4.625-2.204 2.138-6.421 5.187-9.399.69-.674 1.851-.336 2.589-.907.722-.561.831-1.197 1.358-1.798 1.267-1.445-.241-3.122 2.991-1.353l-1.166-6.561c6.337 6.148 6.312-11.544 7.178-14.162-.114.346.569-2.333.568-2.31.186-5.309.911-9.1566-5.307-9.4646 2.354-1.481 3.074 1.411 4.161-1.583.544-1.5-1.155-4.078 1.553-3.111.571-3.188.007-5.768-.703-8.866-.728-3.171-.3-5.287-.267-8.458.037-3.597-1.647-7.212-2.186-10.754-.422-2.774.013-7.149-3.573-6.13-.504-.789 1.267-3.216 1.195-4.416-.112-1.864-2.135-3.758-2.708-5.548-.843.87-2.031 1.16-3.178.767 1.077-2.432.066-3.249-.965-5.346-.591-1.201-.234-2.527-1.499-3.388-.725-.494-1.961.338-2.529-.241-1.218-1.24-.768-2.885-1.606-4.519-1.051-2.049-3.452-3.614-5.106-5.152-9.301-8.645-19.403-15.252-31.775-18.63-12.481-3.408-27.032-4.629-39.471-.698-4.972 1.571-9.386 1.41-13.861 4.344-1.451.952-1.607.697-2.344 2.284-.17.37 1.375 1.355.429 1.96-1.028.657-2.163-.679-2.687-1.788-6.474 4.686-12.54 10.933-16.227 18.096-3.664 7.118-4 15.48-5.399 23.215-6.453-7.372-15.181-10.906-24.67-7.362-8.271 3.088-14.68 9.876-16.298 18.67-.987 5.361.091 10.79 2.526 15.627 1.053 2.09 2.328 4.404 4.264 5.811 1.531 1.112 4.153.956 4.874 2.962 1.105 3.073-5.277 9.7096-6.934 12.3996-2.997 4.868-5.782 9.895-7.902 15.212-7.601-10.737-14.877-22.464-23.52-32.3636-8.157-9.344-17.881-17.724-27.418-25.622-19.794-16.392-40.376-31.792-62.518-44.851-20.617-12.16-45.521-18.911-69.549-16.524-23.477 2.333-41.451 17.181-56.576 34.306-29.082 32.927-46.894 79.8576-48.634 123.6886-.523 13.167.48 26.162 3.732 38.933 1.549 6.081 1.324 12.062 2.224 18.221 1.016 6.948 2.773 13.871 4.472 20.677 6.472 25.927 14.718 51.834 23.971 76.902 4.811 13.036 10.632 25.78 18.507 37.275 3.637 5.31 8.349 9.464 12.263 14.506 3.797 4.89 4.8 10.892 5.635 16.892 2.002 14.387 3.33 28.835 4.534 43.306.511 6.133 1.108 12.212 1.92 18.302.708 5.31-1.073 5.049-5.54 6.852.906-4.771-20.436-1.525-22.451-1.199-2.193.354-4.515.359-6.242.641-1.931.314-3.821.769-6.045.705-3.269-.094-9.39-.929-10.638 3.244-.859-4.838-6.533.452-2.335-.446-4.309.482-8.706-.32-13.067.086-4.998.464-10.039.906-15.002 1.658-3.455.523-6.752 1.854-10.213 2.24-4.429.495-9.051.449-13.523.843-16.4947 1.455-33.5917 5.053-49.6257 9.173-3.632.933-7.805 1.596-11.275 3.094-.929.4-1.765 1.296-2.655 1.64-1.492.576-1.288.178-2.613.442-7.939 1.587-16.129 4.179-24.067 6.213-4.403 1.129-11.565 2.147-15.157 5.22-1.61 1.376-3.017 3.817-.437 5.381 2.061 1.249 5.003-.745 6.671-1.823-1.486 3.873-4.289 5.803-2.775 10.209 1.195 3.482 3.893 7.773 8.044 5.527.556 1.293.781 3.865 2.418 4.34 1.471.427 2.536-1.437 3.977-.998.516.157.32 1.132.782 1.387.796.438 1.603.624 2.515.933.784.266 2.046.812 2.864.87.519.037 1.742-.851 1.738-.851 1.192.181 1.833 2.462 2.691 3.121 1.114.856 2.034 1.051 3.429 1.361 2.9.644 6.638 1.748 8.552-1.221-.438 2.12 2.445 1.912 3.717 2.181-.141-1.117-.758-2.14-1.71-2.753 2.844.188 1.691 3.015 3.793 3.762 1.498.531 1.328-.819 2.474-.969 1.51-.197 2.656.899 5.014-.112.511 2.271.698 4.561 3.487 4.9 1.637.199 5.454-2.757 5.238-.297 3.657-1.072 5.045-.347 6.956 2.876.323-1.979 1.886-1.405 3.32-1.527 2.273-.194 2.331-.011 4.093-1.298.161-.117 1.547-3.292 2.163-1.319.277.884-1.554 2.964-2.232 3.493.842.426 3.601 1.917 4.662 1.643.918-.237.921-1.806 2.024-1.887-.27.902-.539 1.805-.81 2.707 2.146.312 3.939-1.124 5.634-2.176 1.616 4.086 6.235 1.784 8.747 4.859 1.3287 1.627 1.3907 2.863 3.9227 3.288 2.591.435 4.854-.702 7.056 1.435-.698-1.326-2.437-2.426-.709-3.851 1.176 1.669 1.783 3.679 3.139 5.231.187-.789.374-1.578.561-2.368 3.535 3.781 7.985 3.814 12.513 5.91v-2.767c3.242 4.948 3.415 1.817 7.288-.204-.263 1.455-.527 2.91-.79 4.364 2.787-.21 5.391 3.092 7.679.287 1.382 2.318 3.057 1.177 5.322 1.913 1.288.419 2.247 1.687 3.5 2.146 1.879.688 2.44.656 4.209 1.255 1.573.532 2.467 1.568 4.436 1.9 1.279.216 2.439.2 3.663.141.473-.023.317-1.087 1.368-.839 1.625.385 2.835 2.423 4.005 3.468 1.76-4.424 6.688 1.502 9.07 2.291.228-1.134.187-2.501 1.008-3.433.964 2.112 1.332 3.887 3.333 5.247 1.155.785 2.851 1.347 4.185 1.634.843.181 2.375-.036 2.905.224.904.443 1.237 1.626 2.15 1.737.537.065 1.333-1.348 1.735-1.238 1.84.502 2.862 2.737 4.72 3.946 5.529 3.597 12.487 3.946 18.647 4.735 1.546.197 1.77-.225 3.026.682.67.485.366 1.959 1.19 2.372 3.105 1.556 3.107-1.764 3.758-3.827 1.027 1.355 1.204 3.144 2.609 4.222.767-.022 1.535-.005 2.301.052.432.493.716 1.062.848 1.707 1.86 1.256 3.967.819 5.888 1.762.63.309 1.746 2.178 2.522 2.715 1.389.962 3.537 1.476 5.124 1.894 3.328.876 8.1-.288 10.08 3.187 2.629-2.818 1.612.547 3.397 1.254 1.054.417 2.639-1.242 3.808-1.077 2.105.296 2.863 2.575 3.537 4.232 1.282-.286.402-3.913.366-4.708 1.593-.188 1.947 4.007 2.222 4.929 2.515-1.211-1.613-4.98 1.091-6.189-.248 3.211 2.311 5.855-2.259 6.315.631 1.934 15.371 4.082 16.395 2.375.227 3.156 2.347.208 3.129-.872.088 1.841-.539 4.454 1.527 5.31 1.404.581 4.57-.922 5.121-2.298.629 2.102 1.683 2.034 2.993 3.369.9.917 1.493 2.507 2.437 3.275 1.737 1.413 4.968 1.197 6.992.881 3.96-.618 3.492-1.377 4.903 2.739.319-1.562 1.319-4.829 3.063-2.4 1.11 1.543-1.253 4.944-1.936 6.299 1.526-.838 3.041-1.832 4.777-2.193.097.535.186 1.67-.07 2.165.052-.1 1.904 1.142 2.591 1.486-.165-.083.543-3.175.523-3.074 2.443 1.508.748 4.391 2.912 5.878.559.385 1.871-.064 2.547.17 1.177.408 2.195 1.511 3.241 2.156-.835-1.12-.715-3-.658-4.293.532.294.912 1.394 1.449 1.481.203.033 2.308.312 2.294.302 2.191 1.534 1.74 1.727-.141 3.572.672 1.056 3.481-.779 4.241-1.084.159.413.2 1.913.499 2.181.181.444.363.888.545 1.332.561-.418 1.163-.558 1.805-.419.406.141 3.575 1.43 3.79.989a5.6922 5.6922 0 01-1.884-1.031c1.829-1.644 3.032-2.518 4.717-.144.212.299-.517 1.373-.301 1.763.805 1.452 2.459 2.607 3.582 3.79.465-1.633-.617-5.722 1.965-5.573 2.063.118 3.632 5.116 2.918 6.67.82-.897 5.716-1.788 6.64-1.508 2.613.792 1.88 3.208 5.095-.332 2.192 1.513.26 2.086.655 3.93.579.121 1.127-.022 1.646-.429-.388 7.837 5.395 1.849 9.15 3.046 1.474.47 1.851 2.143 3.433 2.632.837.258 1.768-.353 2.582-.204.652-.093 1.3-.208 1.944-.345.816-.409 1.199.048 1.149 1.372 1.312.68.816.946 2.35 1.078.988.086 1.897-.942 3.02-.767 1.937.304 1.681 1.791 2.919 2.568 1.114.7 2.37.677 3.742.542.699-.069 2.662-.97 2.898-.973 1.466-.02.671-.332 2.431.927 1.37.982 1.945 1.618 3.627 2.07 1.929.517 5.351 1.648 6.649.254 1.753 2.628 3.126.699 5.44.873 1.184.09 1.372.551 2.426.735 1.708.298 3.839.04 5.656.623 2.863.92 3.186 1.382 6.112 1.506.528-.206 1.056-.413 1.583-.619.158.881.573 1.6 1.246 2.157 1.637.343 2.712-.483 4.062-1.388 1.006 3.133 4.27 3.407 7.062 3.819 4.505.665 8.813 1.028 13.157 2.509 3.669 1.25 7.345 2.654 10.874 4.255 3.106 1.409 6.037 3.516 9.551 2.527 7.962-2.242 15.678-10.415 22.339-15.108 7.89-5.558 16.399-10.138 24.643-15.135 32.82-19.894 67.493-36.723 99.853-57.357 17.667-11.265 34.06-24.65 53.033-33.764-2.701 11.161-7.299 22.491-6.468 34.176.334 4.709 1.721 10.272 5.373 13.559 4.515 4.065 9.544 1.477 13.862-1.427 9.253-6.221 15.423-15.299 22.348-23.823 8.191-10.084 14.544-20.918 20.559-32.411 1.441 2.023.345 5.412.366 7.655.028 2.862.8 5.62 2.127 8.175 3.426 6.594 9.946 8.193 15.837 3.675 11.338-8.695 17.918-24.18 23.993-36.65 3.465 6.446 8.383 14.56 16.704 9.956 6.866-3.799 10.9-12.288 13-19.478 6.132-20.988 4.189-42.367 5.131-63.881zM798.677 302.806c-.783-1.902-1.127-1.591.313-3.435 1.122 1.105.224 2.018-.313 3.435zm34.7 115.113c-2.202-6.26-.842-13.058-2.179-19.479-.614-2.946-1.583-5.804-1.932-8.803-.155-1.331-1.34-7.322-.533-8.265-2.484-1.504-2.492-2.617-3.066-5.566.885-.939.774-1.74-.334-2.405-.724-.876-1.449-1.753-2.174-2.629 3.169 1.549 1.294-2.416.971-4.701-.256-1.806-.428-3.69-1.03-5.421-.741-2.128-2.389-3.204 1.039-3.204-1.128-1.283-2.815-2.607-3.377-4.178-.808-2.261.525-5.249-1.123-7.246-.919-1.114-5.656-1.55-4.825-3.956.423-1.226 2.343-.311 2.937-1.17 2.335-3.376-4.559-4.775-4.897-6.211-.438-1.862 2.052-2.278 2.205-4.019.149-1.704-2.5-4.504-3.2-6.028-.954.232-2 1.741-3.092 1.02-.207-.136.104-6.035-.144-6.818-.244-.77-.743-2.812-.921-3.19-.707-1.501-2.73-2.232-3.051-4.005-.192-1.058 3.954-2.66-.801-2.71 1.708-3.01-1.421-4.839-2.56-7.411-1.464-3.307-2.327-6.879-3.831-10.203-1.462-3.231-3.097-6.297-5.205-9.154-1.908-2.587-2.733-5.075-4.258-7.807l-.915-.72c-1.272.184-1.68-.395-1.224-1.738-.973-1.441-1.696-2.979-2.554-4.484-.997-1.749-2.342-3.175-3.372-4.876-1.367-2.255-1.771-4.798-3.316-7.06-1.899-2.783-4.035-5.237-5.796-8.124-2.206-3.617-4.649-5.865-7.425-8.666-1.321-1.334-1.48-4.666-3.099-6.56-1.763-2.063-3.504-2.622-4.726-5.33-1.59-3.523-3.923-5.205-6.194-8.25-1.874-2.512-2.789-5.399-4.853-7.829-1.775-2.087-3.79-3.994-5.685-5.973-2.392-2.499-4.158-5.536-6.648-7.912.359.343-2.167-1.659-2.04-1.595-.559-.285-2.363-.514-2.1-.359-3.758-2.209-8.467-10.294-14.122-6.01-2.975 2.253-1.548 6.385.529 8.629.892.964 5.527 5.716 6.528 3.712 1.081 1.532 4.41 8.938 7.179 6.816-.282 2.531 1.184 1.691 2.152 3.402.637 1.129.327 1.683.791 3.445 1.277 4.844 6.149 9.575 8.744 13.799 6.459 10.513 13.584 20.484 20.049 31.009 6.161 10.031 13.061 19.549 18.972 29.715 6.723 11.56 15.099 22.472 20.164 34.934.171.419 1.578 1.082 1.927 1.711.609 1.093.478 2.983.87 4.221 1.359 4.292 3.562 8.517 6.072 12.072 2.202 3.119 2.362 7.358 3.877 11.017 2.137 5.157 4.394 10.26 6.47 15.443 3.231 8.067 5.42 15.799 7.653 24.221 1.447 5.458 2.598 10.913 3.059 16.549.424 5.183.528 10.582 2.446 15.489 1.308-2.02 2.849-4.637 1.968-7.139z" fill="#1A202C"/><path fill-rule="evenodd" clip-rule="evenodd" d="M94.2391 528.98c-2.322-.469-4.507-1.095-4.999-3.761-.337 1.257-.673 2.514-1.01 3.771 2.827.64 5.655 1.281 8.482 1.921-.66-1.163-1.142-1.662-2.473-1.931zM100.47 91.4389c.176-.752.404-1.489.685-2.208.191.701 1.127 2.217.582 2.878-.694.839-1.396.364-1.267-.67zm11.383-21.658c.762.336 2.411.401 3.357.685-2.454 2.111-2.886 1.49-6.059 1.245-.141-2.136.727-2.799 2.702-1.93zM90.5815 122.659c.329.009.659.017.99.025.02-.93-.004-1.859-.074-2.787 3.346.731 1.452-5.116.401-6.328 3.264.109 4.854-10.225 5.888-12.216.918-1.7681 1.958-2.4521 2.6295-4.6081.587-1.887 1.222-3.585 2.069-5.37 1.946-4.104 4.499-7.831 4.028-12.614 1.649 3.589 3.099.006 4.145-1.71 1.685-2.765 5.796-6.293 6.233-9.577.386-2.891-1.762-3.044-.494-5.725 1.282-2.714 2.336-2.442 4.582-3.31 1.494-.578 1.791.124 2.845-1.762.683-1.221.442-2.131 1.317-3.132.361.314.772.444 1.232.39.71-.937 1.176-1.981 1.397-3.132.579-1.554.859-2.981 1.731-4.461.827-1.402 2.295-5.153 3.073-5.829.826-.718 5.511-.353 5.491-.327 1.935-2.434-1.616-4.859 3.301-4.346-.971-1.808 2.44-4.052 3.43-5.058 2.473-2.511 2.67-3.673 3.192-6.831.265-1.61-1.465-1.424.854-1.791.959-.151 1.879 1.075 2.571.895 3.055-.792-.141-.641.702-1.886.266-.395 1.625-1.989 1.612-1.972-.066.08.306-1.387.614-1.764.584-.05 1.159-.152 1.724-.306.287-.58.541-1.174.761-1.782 2.211-1.844 5.519-2.669 7.048-4.695.989-1.31.693-2.593 1.971-3.899 1.217-1.244 2.827-.343 3.068-3.153.307-3.575-3.533-5.166-5.104-1.558-4.26-5.247-22.066 14.004-24.123 16.519-8.935 10.918-17.717 22.106-25.046 34.179-7.141 11.764-13.002 24.142-17.5835 37.117-2.209 6.256-3.554 12.4841-4.903 18.9551-.453 2.167-3.838 11.824-2.429 13.985.285-.045.571-.091.857-.136zM793.887 390.399c1.505-1.004 1.505-1.004 1.769-2.901-2.018.368-2.018.368-1.769 2.901zM52.0496 518.024c.019-.002.033.003.044.014-.032-.041-.148-.162-.044-.014zM51.0398 519.041c.465 1.005 1.212 1.255 2.242.748.406.58-3.522-3.619-2.242-.748z" fill="#1A202C"/><path fill-rule="evenodd" clip-rule="evenodd" d="M118.966 60.3463c-2.357 4.621.595 1.26.444 2.761.099-.986.508-2.391-.444-2.761zM502.157 131.868c1.021 8.286 12.357 4.367 14.907-.645 1.857-3.649 6.546-18.068 1.501-21.114-3.74-2.258-4.539 7.474-5.461 9.648-1.545 3.641-2.752 1.061-6.187 1.995-3.791 1.031-5.182 6.68-4.76 10.116zM489.771 116.701c4.052.9 8.024.436 10.902-2.764 1.594-1.772 3.715-5.287.845-7.002-2.601-1.553-5.55 2.084-8.289 1.332-3.725-1.023-1.807-5.017-3.085-7.655-4.696 2.704-7.316 14.547-.373 16.089zM493.973 137.624c-3.906-.008-3.938 4.796-1.899 6.855 1.951 1.97 6.885 3.964 9.53 2.432 5.218-3.024-4.47-8.975-7.631-9.287zM266.704 328.661c.834.405 3.292 2.489 4.328 1.548-1.462-1.473-2.925-2.946-4.387-4.419-.808.886-1.362 2.181.059 2.871zM248.245 117.9c-.415.31-.831.619-1.246.928 1.401 1.167 1.366 1.514 2.778.409a4.9623 4.9623 0 00-1.532-1.337zM512.974 392.815c-.785-1.41-2.268 1.19-3.271 1.613-1.632.687-2.971-2.953-2.503 1.41-3.689-1.689-5.928 2.186-8.307 4.204-3.361 2.852-7.472 4.399-9.714 8.449 10.553 2.469 22.148-6.629 30.017-12.605 1.284-.976 7.702-5.899 3.352-6.375-1.779-.194-8.254 5.674-9.574 3.304zM509.845 384.273c2.068-1.628-2.391-1.777-3.096-1.948.061 1.295.12 2.589.181 3.884.998-.605 1.97-1.251 2.915-1.936zM502.079 389.703c.618-.386 2.341-1.591 1.169-2.489-1.059.674-1.816 1.774-1.982 3.029l.813-.54zM331.167 284.695c-1.321.518-1.913 1.337-1.774 2.459 2.03-.415 1.643-2.332 1.774-2.459z" fill="#1A202C"/></svg>
